{"glyphs":{"（":{"ha":0,"x_min":0,"x_max":0,"o":"m 729 467 b 939 -151 729 257 796 65 l 1176 -151 b 981 474 1043 75 981 269 b 1185 1099 981 672 1044 864 l 944 1099 b 729 467 799 875 729 683 z "},"）":{"ha":0,"x_min":0,"x_max":0,"o":"m 386 474 b 190 -151 386 269 324 75 l 428 -151 b 638 467 571 65 638 257 b 422 1099 638 683 568 875 l 182 1099 b 386 474 322 864 386 672 z "},"万":{"ha":0,"x_min":0,"x_max":0,"o":"m 1274 853 l 1274 1042 l 93 1042 l 93 853 l 386 853 l 383 788 l 379 699 b 339 403 371 575 357 476 b 244 197 321 329 289 260 b 47 -7 201 135 135 67 l 213 -153 b 460 135 325 -54 407 42 b 567 475 513 229 549 343 l 944 475 b 925 174 943 435 938 333 b 821 63 917 74 907 71 l 701 53 l 764 -135 l 896 -126 b 1129 101 1083 -111 1111 -79 b 1146 389 1135 179 1140 275 b 1160 669 1153 503 1157 596 l 585 669 l 586 697 l 594 853 z "},"上":{"ha":0,"x_min":0,"x_max":0,"o":"m 1203 572 l 1203 761 l 744 761 l 744 1107 l 540 1114 l 540 94 l 69 94 l 69 -94 l 1293 -94 l 1293 94 l 744 94 l 744 572 z "},"丹":{"ha":0,"x_min":0,"x_max":0,"o":"m 1129 524 l 1129 1072 l 263 1072 l 263 524 l 75 524 l 75 336 l 257 336 b 214 140 251 258 238 193 b 90 -54 190 89 150 24 l 265 -161 b 403 79 331 -71 376 10 b 450 336 429 149 444 235 l 939 336 l 939 143 b 856 49 939 75 924 58 l 753 36 l 814 -147 l 917 -137 b 1129 71 1081 -121 1129 -81 l 1129 336 l 1286 336 l 1286 524 z m 871 658 b 768 772 847 690 813 728 b 657 881 725 818 688 854 l 522 758 b 624 653 549 736 582 701 b 726 524 665 604 700 561 l 453 524 l 453 894 l 939 894 l 939 524 l 739 524 z "},"乌":{"ha":0,"x_min":0,"x_max":0,"o":"m 419 842 l 919 842 b 914 774 918 807 915 785 b 836 718 910 736 892 722 l 700 707 l 750 550 l 896 563 b 1104 736 1046 576 1096 610 l 1118 1011 l 697 1011 b 728 1110 714 1060 724 1093 l 519 1118 b 488 1011 517 1103 506 1068 l 229 1011 l 229 342 l 1042 342 l 1036 239 l 1029 136 b 921 42 1021 60 1011 50 l 785 31 l 842 -139 l 982 -126 b 1221 90 1158 -110 1204 -81 b 1232 294 1225 142 1228 210 b 1240 514 1236 379 1239 453 l 419 514 z m 85 83 l 965 83 l 965 257 l 85 257 z "},"买":{"ha":0,"x_min":0,"x_max":0,"o":"m 254 756 b 411 676 297 736 350 710 b 572 585 472 644 526 614 l 640 753 b 365 886 569 790 478 835 l 1054 886 l 1026 818 b 971 689 1004 757 986 714 l 1144 633 b 1236 846 1168 682 1199 753 b 1250 883 1238 847 1242 860 l 1250 1063 l 142 1063 l 142 886 l 322 886 z m 1272 396 l 878 396 b 890 593 885 454 889 519 l 893 663 b 897 836 896 788 897 846 l 701 844 b 696 621 701 775 700 700 b 678 396 693 522 688 447 l 504 396 l 556 518 b 403 599 518 540 468 567 b 219 686 339 631 278 660 l 144 542 b 422 396 215 511 307 463 l 92 396 l 92 226 l 604 226 b 421 104 564 178 503 136 b 74 18 339 72 224 44 l 156 -168 b 511 -60 304 -132 422 -96 b 725 64 601 -25 672 17 b 1194 -160 913 -15 1068 -89 l 1272 17 b 1078 106 1226 40 1163 71 b 828 206 994 140 911 174 l 836 226 l 1272 226 z "},"亚":{"ha":0,"x_min":0,"x_max":0,"o":"m 931 282 l 1033 221 b 1167 454 1074 283 1118 361 b 1272 688 1215 547 1250 625 l 1107 772 b 931 410 1069 667 1010 546 l 931 890 l 1235 890 l 1235 1076 l 129 1076 l 129 890 l 429 890 l 429 422 b 329 624 400 486 367 553 b 247 771 293 694 265 743 l 88 683 b 194 471 113 643 149 572 b 308 213 242 369 279 283 l 429 286 l 429 82 l 72 82 l 72 -103 l 1292 -103 l 1292 82 l 931 82 z m 739 82 l 624 82 l 624 890 l 739 890 z "},"京":{"ha":0,"x_min":0,"x_max":0,"o":"m 789 1007 b 765 1117 778 1067 769 1103 l 550 1111 l 576 1007 l 97 1007 l 97 835 l 1264 835 l 1264 1007 z m 1142 763 l 218 763 l 218 306 l 597 306 l 597 135 b 535 42 597 64 589 49 l 431 31 l 492 -157 l 597 -146 b 794 61 767 -126 789 -108 l 794 306 l 1142 306 z m 947 474 l 413 474 l 413 593 l 947 593 z m 346 304 b 35 24 257 201 153 108 l 167 -124 b 492 188 285 -28 393 76 z m 863 169 b 1189 -131 979 79 1104 -35 l 1315 21 b 981 304 1214 119 1103 214 z "},"什":{"ha":0,"x_min":0,"x_max":0,"o":"m 339 1125 b 208 817 308 1026 265 924 b 29 543 151 710 92 618 l 131 342 b 239 489 163 382 199 432 l 239 -129 l 429 -129 l 429 819 b 529 1075 467 899 500 985 z m 985 1104 l 786 1111 l 786 689 l 481 689 l 481 485 l 786 485 l 786 -132 l 985 -132 l 985 485 l 1303 485 l 1303 689 l 985 689 z "},"伊":{"ha":0,"x_min":0,"x_max":0,"o":"m 288 1124 b 169 817 261 1025 221 924 b 17 550 118 711 68 622 l 99 343 b 186 458 126 378 156 415 l 186 -143 l 368 -143 l 368 783 b 471 1078 406 872 440 971 z m 1208 750 l 1208 1065 l 485 1065 l 485 881 l 658 881 l 658 750 l 418 750 l 418 561 l 656 561 b 647 414 654 507 651 457 l 443 414 l 443 226 l 611 226 b 536 101 593 179 568 138 b 397 -18 504 67 457 26 l 556 -161 b 725 25 631 -93 688 -31 b 808 226 763 81 790 147 l 1208 226 l 1208 561 l 1300 561 l 1300 750 z m 1025 750 l 844 750 l 844 881 l 1025 881 z m 835 414 b 842 561 839 471 840 521 l 1025 561 l 1025 414 z "},"伦":{"ha":0,"x_min":0,"x_max":0,"o":"m 1046 247 b 1033 144 1044 217 1040 182 b 931 54 1019 72 1008 60 b 872 53 918 53 899 53 b 813 54 846 53 825 53 b 733 126 747 58 733 71 l 733 260 b 954 361 804 290 878 324 b 1142 457 1031 399 1093 431 l 1046 639 b 733 469 967 589 863 532 l 733 633 l 629 636 b 847 903 714 717 786 806 b 1006 693 885 833 938 764 b 1229 510 1074 622 1147 561 l 1333 681 b 1094 882 1249 738 1168 804 b 926 1122 1021 960 964 1040 l 763 1122 b 601 889 724 1043 669 965 b 390 690 533 813 464 746 l 390 792 b 499 1067 432 878 468 969 l 311 1126 b 188 819 282 1026 242 924 b 19 542 135 715 79 624 l 114 351 b 201 469 147 394 176 433 l 201 -140 l 390 -140 l 390 654 l 476 510 b 539 558 507 533 528 549 l 539 115 b 778 -128 539 -76 601 -119 b 886 -131 824 -129 860 -131 b 993 -128 911 -131 947 -129 b 1219 29 1138 -121 1197 -78 b 1243 179 1229 72 1236 122 l 1046 247 z "},"伯":{"ha":0,"x_min":0,"x_max":0,"o":"m 932 943 b 976 1096 947 990 961 1042 l 768 1121 b 724 943 758 1067 743 1007 l 501 943 l 501 -115 l 1233 -115 l 1233 943 z m 307 1117 b 182 810 278 1019 236 917 b 24 546 128 703 75 614 l 121 363 b 210 485 144 392 174 433 l 210 -131 l 383 -131 l 383 793 b 483 1071 419 872 453 964 z m 690 514 l 690 761 l 1044 761 l 1044 514 z m 1044 340 l 1044 61 l 690 61 l 690 340 z "},"克":{"ha":0,"x_min":0,"x_max":0,"o":"m 1124 214 b 1113 103 1124 171 1119 135 b 1036 43 1103 57 1090 44 l 975 43 b 907 107 921 44 907 56 l 907 275 l 1163 275 l 1163 751 l 771 751 l 771 832 l 1257 832 l 1257 1010 l 771 1010 l 771 1106 l 589 1113 l 589 1010 l 100 1010 l 100 832 l 589 832 l 589 751 l 197 751 l 197 275 l 406 275 b 56 -1 376 129 303 76 l 182 -167 b 539 74 381 -83 482 -19 b 596 250 568 121 588 179 l 599 275 l 726 275 l 726 44 b 896 -126 726 -82 767 -118 b 982 -129 915 -128 944 -129 b 1068 -126 1021 -129 1050 -128 b 1279 26 1224 -115 1250 -96 b 1299 161 1290 86 1297 131 z m 983 450 l 376 450 l 376 576 l 983 576 z "},"兰":{"ha":0,"x_min":0,"x_max":0,"o":"m 974 860 b 1090 1050 1024 933 1063 997 l 908 1140 b 835 1010 892 1107 867 1064 b 739 860 803 956 771 906 l 511 860 l 588 914 b 433 1131 544 986 479 1076 l 272 1028 b 388 860 299 993 338 938 l 139 860 l 139 667 l 1217 667 l 1217 860 z m 222 485 l 222 303 l 1132 303 l 1132 485 z m 1288 -104 l 1288 85 l 68 85 l 68 -104 z "},"关":{"ha":0,"x_min":0,"x_max":0,"o":"m 1244 351 l 1244 542 l 774 542 l 774 703 l 1186 703 l 1186 892 l 981 892 l 1061 1071 l 847 1101 l 765 892 l 588 892 l 508 1097 l 301 1068 l 376 892 l 164 892 l 164 703 l 575 703 l 575 542 l 108 542 l 108 351 l 543 351 b 58 35 483 233 342 131 l 171 -151 b 678 204 426 -56 589 58 b 1185 -147 779 43 957 -76 l 1293 39 b 794 351 1044 100 874 207 z "},"内":{"ha":0,"x_min":0,"x_max":0,"o":"m 775 1101 l 588 1108 l 588 944 l 132 944 l 132 -137 l 319 -137 l 319 239 l 407 138 b 689 450 539 243 632 347 b 949 156 790 344 878 246 l 1046 278 l 1046 119 b 969 46 1046 69 1029 53 l 861 35 l 922 -147 l 1040 -136 b 1235 50 1200 -119 1229 -99 l 1235 944 l 775 944 z m 319 757 l 585 757 b 514 531 578 671 554 596 b 319 331 474 465 410 399 z m 1046 349 b 907 494 1008 390 963 439 b 757 639 853 550 803 599 b 772 757 764 681 769 719 l 1046 757 z "},"列":{"ha":0,"x_min":0,"x_max":0,"o":"m 1069 125 b 996 50 1069 74 1051 57 l 882 36 l 943 -156 l 1067 -140 b 1256 43 1213 -124 1256 -87 l 1256 1094 l 1069 1100 z m 279 883 b 183 636 261 807 229 725 b 40 404 139 549 92 471 l 147 244 b 233 357 182 286 210 324 b 342 260 274 325 310 292 l 453 414 b 329 517 424 443 382 476 b 367 592 343 542 356 567 l 547 592 b 383 258 511 464 457 353 b 61 -29 310 165 203 69 l 219 -161 b 733 592 525 71 653 269 l 733 768 l 438 768 b 472 883 446 793 457 832 l 757 883 l 757 1069 l 113 1069 l 113 883 z m 793 175 l 974 175 l 974 981 l 793 986 z "},"利":{"ha":0,"x_min":0,"x_max":0,"o":"m 1065 135 b 992 47 1065 79 1047 54 l 886 35 l 946 -156 l 1064 -142 b 1253 56 1210 -125 1253 -82 l 1253 1094 l 1065 1100 z m 949 982 l 767 989 l 767 300 b 665 406 740 331 706 365 b 563 504 625 446 592 479 l 507 446 l 507 572 l 719 572 l 719 754 l 507 754 l 507 890 l 553 897 b 710 922 618 907 671 915 l 678 1099 b 399 1056 600 1083 507 1069 b 108 1028 290 1043 193 1033 l 131 849 l 322 868 l 322 754 l 96 754 l 96 572 l 294 572 b 28 229 229 451 140 336 l 138 50 b 322 286 208 124 269 203 l 322 -143 l 507 -143 l 507 306 b 644 150 554 257 600 206 l 767 297 l 767 164 l 949 164 z "},"别":{"ha":0,"x_min":0,"x_max":0,"o":"m 1057 121 b 979 47 1057 67 1039 51 l 874 39 l 931 -150 l 1033 -140 b 1236 43 1192 -126 1236 -89 l 1236 1093 l 1057 1100 z m 722 593 l 722 1078 l 131 1078 l 131 593 l 257 593 l 254 489 l 86 489 l 86 311 l 240 311 b 178 132 229 242 208 182 b 36 -32 149 82 101 28 l 192 -154 b 351 69 265 -69 318 4 b 419 311 385 135 407 215 l 551 311 l 547 156 b 432 57 544 74 531 65 l 371 50 l 426 -126 l 503 -119 b 721 68 658 -106 715 -68 l 729 281 l 735 489 l 432 489 l 436 593 z m 801 186 l 969 186 l 969 983 l 801 990 z m 543 764 l 306 764 l 306 908 l 543 908 z "},"力":{"ha":0,"x_min":0,"x_max":0,"o":"m 678 896 b 685 1114 682 996 685 1068 l 490 1119 l 483 896 l 121 896 l 121 693 l 474 693 b 417 399 464 572 446 474 b 290 200 389 324 347 257 b 43 3 235 143 153 76 l 203 -149 b 475 90 321 -62 413 17 b 613 339 538 164 583 247 b 671 693 642 431 661 549 l 1033 693 b 1025 443 1033 649 1031 565 b 1014 196 1021 322 1017 239 b 882 78 1008 94 993 86 l 726 65 l 785 -133 l 958 -119 b 1206 90 1132 -106 1200 -60 b 1225 518 1211 197 1218 339 b 1239 896 1232 697 1238 824 z "},"加":{"ha":0,"x_min":0,"x_max":0,"o":"m 233 1115 l 229 918 l 85 918 l 85 725 l 224 725 b 196 400 217 590 208 482 b 142 178 185 318 167 244 b 35 -40 118 111 82 39 l 204 -151 b 319 100 254 -61 293 22 b 379 360 346 178 367 264 b 408 725 392 456 401 576 l 503 725 l 489 183 b 396 64 486 88 482 72 l 332 60 l 390 -133 l 465 -126 b 674 85 640 -106 663 -89 b 690 918 676 167 682 444 l 415 918 b 418 1019 415 944 417 979 l 419 1104 z m 1253 -112 l 1253 1003 l 749 1003 l 749 -112 z m 936 815 l 1072 815 l 1072 71 l 936 71 z "},"勒":{"ha":0,"x_min":0,"x_max":0,"o":"m 986 875 l 992 1104 l 824 1110 l 819 875 l 735 875 l 735 1021 l 642 1021 l 642 1101 l 472 1107 l 472 1021 l 349 1021 l 349 1101 l 175 1107 l 175 1021 l 93 1021 l 93 871 l 175 871 l 175 675 l 321 675 l 321 618 l 119 618 l 119 253 l 321 253 l 321 193 l 65 193 l 65 38 l 321 38 l 321 -135 l 490 -135 l 490 38 l 674 38 b 614 -49 650 3 631 -26 l 765 -158 b 983 692 936 103 972 233 l 1101 692 l 1078 149 b 986 57 1076 81 1058 67 l 919 51 l 975 -135 l 1069 -128 b 1246 44 1188 -117 1240 -90 l 1275 875 z m 349 801 l 349 871 l 472 871 l 472 801 z m 710 193 l 490 193 l 490 253 l 694 253 l 694 618 l 490 618 l 490 675 l 642 675 l 642 871 l 729 871 l 729 692 l 815 692 b 786 338 811 542 801 424 b 710 101 772 253 747 174 z m 331 390 l 258 390 l 258 483 l 331 483 z m 556 483 l 556 390 l 482 390 l 482 483 z "},"北":{"ha":0,"x_min":0,"x_max":0,"o":"m 115 806 l 115 606 l 393 606 l 393 296 b 217 218 340 271 282 244 b 51 157 151 192 97 172 l 108 -49 b 393 76 193 -17 288 25 l 393 -137 l 592 -137 l 592 1103 l 393 1110 l 393 806 z m 1129 285 b 1114 128 1128 236 1122 183 b 1057 67 1104 85 1094 71 b 1011 64 1035 65 1019 64 b 960 67 1003 64 986 65 b 918 129 931 68 918 90 l 918 519 b 1283 738 1046 581 1182 664 l 1175 913 b 918 738 1088 844 1003 786 l 918 1101 l 719 1110 l 719 58 b 886 -121 719 -58 769 -111 b 992 -125 914 -124 949 -125 b 1128 -119 1038 -125 1083 -124 b 1292 35 1226 -114 1271 -75 b 1314 221 1297 64 1304 125 z "},"华":{"ha":0,"x_min":0,"x_max":0,"o":"m 265 374 l 453 374 l 453 892 b 561 1083 493 954 529 1018 l 388 1132 b 65 725 314 992 193 836 l 143 551 b 265 664 185 586 225 624 z m 521 568 l 553 579 b 663 618 596 594 633 607 l 663 575 b 828 399 663 443 707 403 b 940 396 878 397 915 396 b 1065 399 975 396 1017 397 b 1275 568 1213 407 1250 429 b 1285 649 1281 604 1283 631 l 1121 710 b 1111 632 1119 681 1115 654 b 1029 569 1101 582 1089 575 b 974 568 1017 568 999 568 b 917 569 949 568 929 568 b 856 639 871 574 856 588 l 856 694 b 1243 901 996 754 1125 824 l 1156 1064 b 856 894 1060 1001 960 944 l 856 1110 l 663 1115 l 663 814 b 457 744 607 793 539 769 z m 783 399 l 588 403 l 588 294 l 72 294 l 72 106 l 588 106 l 588 -146 l 783 -146 l 783 106 l 1292 106 l 1292 294 l 783 294 z "},"南":{"ha":0,"x_min":0,"x_max":0,"o":"m 1282 1028 l 774 1028 l 774 1115 l 578 1124 l 578 1028 l 71 1028 l 71 854 l 578 854 l 578 769 l 135 769 l 135 -142 l 317 -142 l 317 604 l 421 604 l 457 474 l 367 474 l 367 331 l 585 331 l 585 261 l 354 261 l 354 115 l 585 115 l 585 -99 l 765 -99 l 765 115 l 1000 115 l 1000 261 l 765 261 l 765 331 l 983 331 l 983 474 l 893 474 l 936 604 l 1035 604 l 1035 107 b 979 31 1035 50 1024 36 l 900 22 l 956 -156 l 1043 -146 b 1219 28 1181 -129 1219 -94 l 1219 769 l 774 769 l 774 854 l 1282 854 z m 592 604 l 767 604 l 728 474 l 626 474 z "},"卡":{"ha":0,"x_min":0,"x_max":0,"o":"m 1286 644 l 725 644 l 725 792 l 1157 792 l 1157 975 l 725 975 l 725 1106 l 529 1113 l 529 644 l 71 644 l 71 457 l 529 457 l 529 -135 l 726 -135 l 726 254 b 929 128 788 218 856 176 b 1114 3 1003 81 1065 39 l 1206 175 b 1011 293 1165 203 1100 242 b 789 414 922 344 849 385 l 726 304 l 726 457 l 1286 457 z "},"卢":{"ha":0,"x_min":0,"x_max":0,"o":"m 1276 1022 l 732 1022 l 732 1106 l 542 1113 l 542 769 l 201 769 l 201 507 b 186 250 201 399 196 313 b 136 90 176 188 160 135 b 31 -71 114 46 79 -8 l 213 -168 b 326 26 264 -100 301 -36 b 379 243 353 89 369 161 l 1194 243 l 1194 769 l 732 769 l 732 851 l 1276 851 z m 388 585 l 1008 585 l 1008 428 l 388 428 z "},"历":{"ha":0,"x_min":0,"x_max":0,"o":"m 181 547 b 117 124 181 358 160 235 b 26 -68 96 69 65 6 l 224 -149 b 375 567 343 86 372 218 l 375 871 l 1290 871 l 1290 1064 l 181 1064 z m 628 835 l 625 689 l 419 689 l 419 500 l 618 500 b 314 -22 593 254 542 164 l 472 -158 b 811 500 717 53 783 178 l 1025 500 l 1008 158 b 907 61 1000 81 986 69 l 782 51 l 847 -140 l 975 -128 b 1200 56 1144 -111 1192 -69 l 1215 367 l 1229 689 l 818 689 l 821 831 z "},"参":{"ha":0,"x_min":0,"x_max":0,"o":"m 1264 565 l 1264 724 l 1128 724 l 1225 840 b 1058 975 1181 879 1125 924 b 882 1104 993 1026 933 1069 l 769 997 b 865 928 793 982 825 958 l 483 921 b 706 1079 574 968 647 1021 l 522 1140 b 396 1032 488 1106 444 1069 b 281 956 347 996 308 971 b 181 921 247 938 214 926 l 218 774 b 383 782 265 778 321 781 l 514 785 b 479 724 499 757 488 736 l 94 724 l 94 565 l 350 565 b 31 374 271 489 164 425 l 131 218 b 363 353 226 267 304 313 l 389 286 b 632 342 479 303 561 321 b 849 418 703 363 775 388 l 790 536 b 472 438 697 496 592 464 b 593 565 515 475 556 518 l 782 565 b 1240 217 893 411 1033 311 l 1332 388 b 989 565 1182 438 1074 493 z m 693 724 b 725 789 706 747 717 768 l 1028 793 l 1104 724 z m 928 392 b 618 275 831 344 728 306 b 226 197 508 244 378 218 l 285 69 b 685 153 443 93 576 121 b 996 272 793 185 897 225 z m 207 -167 b 760 -57 419 -137 603 -101 b 1189 104 917 -14 1060 40 l 1101 249 b 704 92 981 183 847 132 b 139 -8 561 53 372 19 z "},"各":{"ha":0,"x_min":0,"x_max":0,"o":"m 1303 557 b 892 646 1143 581 1007 610 b 1163 860 990 706 1081 778 l 1163 1033 l 601 1033 b 647 1096 632 1075 647 1096 l 446 1132 b 282 953 404 1075 350 1015 b 79 792 214 890 147 836 l 188 651 b 332 761 233 683 281 719 b 483 647 381 721 431 682 b 39 533 339 597 190 560 l 113 353 b 232 383 158 363 197 374 l 232 -121 l 1126 -121 l 1126 396 l 1239 371 z m 918 864 b 686 729 860 818 782 772 b 486 864 613 767 546 813 z m 319 407 b 685 538 458 447 581 492 b 1079 407 803 486 933 442 z m 417 238 l 942 238 l 942 49 l 417 49 z "},"吉":{"ha":0,"x_min":0,"x_max":0,"o":"m 781 972 l 781 1101 l 581 1107 l 581 972 l 78 972 l 78 793 l 581 793 l 581 675 l 160 675 l 160 496 l 1200 496 l 1200 675 l 781 675 l 781 793 l 1281 793 l 1281 972 z m 1153 407 l 207 407 l 207 -122 l 1153 -122 z m 958 53 l 404 53 l 404 231 l 958 231 z "},"哈":{"ha":0,"x_min":0,"x_max":0,"o":"m 814 1131 b 510 746 746 983 644 856 l 510 1007 l 97 1007 l 97 13 l 510 13 l 510 638 l 563 556 b 667 649 592 579 626 611 l 667 550 l 1118 550 l 1118 646 b 1236 544 1138 628 1176 594 l 1329 708 b 960 1131 1161 835 1028 979 z m 740 724 b 888 919 807 797 856 863 b 1038 724 921 857 971 792 z m 267 825 l 356 825 l 356 196 l 267 196 z m 1203 454 l 571 454 l 571 -122 l 1203 -122 z m 1032 53 l 742 53 l 742 282 l 1032 282 z "},"图":{"ha":0,"x_min":0,"x_max":0,"o":"m 1251 -117 l 1251 1081 l 114 1081 l 114 -117 z m 1074 525 b 843 582 986 540 910 558 b 1014 708 890 611 947 654 l 1014 831 l 615 831 l 650 881 l 489 901 b 289 697 428 819 368 757 l 289 913 l 1074 913 z m 821 714 b 681 633 779 686 732 660 b 563 714 640 654 601 681 z m 375 585 b 456 649 393 597 421 619 b 528 586 482 625 506 604 b 289 515 457 561 378 538 l 289 693 z m 289 490 l 342 365 l 475 408 l 463 324 b 876 253 563 311 700 288 l 892 382 b 557 439 785 403 674 422 b 681 490 603 456 644 472 b 1017 367 765 447 878 406 l 1074 507 l 1074 47 l 289 47 z m 367 154 b 656 111 440 144 538 131 b 942 60 774 92 869 75 l 961 199 b 669 250 885 214 788 232 b 389 290 551 269 458 283 z "},"圣":{"ha":0,"x_min":0,"x_max":0,"o":"m 118 403 b 669 567 339 451 522 506 b 1233 399 826 494 1006 443 l 1304 590 b 883 675 1125 617 985 644 b 1175 906 989 738 1086 815 l 1175 1076 l 150 1076 l 150 908 l 219 908 b 465 683 296 821 378 746 b 46 586 336 642 196 610 z m 913 908 b 667 763 843 854 761 806 b 464 908 593 803 526 851 z m 1161 372 l 769 372 l 769 481 l 585 486 l 585 372 l 189 372 l 189 199 l 585 199 l 585 68 l 85 68 l 85 -112 l 1267 -112 l 1267 68 l 769 68 l 769 199 l 1161 199 z "},"坡":{"ha":0,"x_min":0,"x_max":0,"o":"m 1318 8 b 1053 139 1215 47 1126 90 b 1215 443 1126 226 1172 319 l 1215 619 l 978 619 l 978 797 l 1097 797 l 1057 692 l 1219 665 l 1272 796 l 1272 974 l 978 974 l 978 1107 l 797 1113 l 797 974 l 501 974 l 501 615 b 492 346 501 501 499 411 b 457 169 486 281 475 221 l 451 224 l 439 322 l 371 300 l 371 606 l 464 606 l 464 799 l 371 799 l 371 1096 l 189 1101 l 189 799 l 88 799 l 88 606 l 189 606 l 189 244 b 43 201 108 219 60 206 l 79 4 l 438 118 b 332 -58 414 64 378 6 l 496 -150 b 563 -32 525 -101 547 -61 l 639 -156 b 922 17 754 -97 849 -40 b 1221 -158 1001 -40 1100 -99 z m 675 619 l 675 797 l 797 797 l 797 619 z m 1036 443 b 919 243 1008 364 969 297 b 778 443 857 304 810 371 z m 789 133 b 592 28 733 96 668 61 b 665 294 632 121 654 200 b 789 133 700 235 742 181 z "},"坦":{"ha":0,"x_min":0,"x_max":0,"o":"m 482 82 l 496 86 l 486 185 l 478 296 l 379 263 l 379 590 l 486 590 l 486 793 l 379 793 l 379 1096 l 199 1103 l 199 793 l 86 793 l 86 590 l 199 590 l 199 204 l 39 156 l 79 -43 b 436 68 147 -22 265 14 l 436 -108 l 1299 -108 l 1299 82 z m 533 208 l 1226 208 l 1226 1063 l 533 1063 z m 719 724 l 719 879 l 1038 879 l 1038 724 z m 1038 547 l 1038 393 l 719 393 l 719 547 z "},"埃":{"ha":0,"x_min":0,"x_max":0,"o":"m 1263 213 l 1263 379 l 958 379 l 958 386 l 960 474 l 1211 474 l 1211 638 l 732 638 l 753 692 l 669 714 b 1110 732 775 719 922 725 l 1158 657 l 1281 779 b 1036 1063 1226 856 1146 950 l 917 969 b 986 894 935 954 957 929 l 756 886 b 839 974 779 908 807 938 b 918 1075 871 1010 897 1043 l 747 1138 b 650 1004 721 1094 689 1050 b 564 913 613 958 583 928 b 483 881 543 897 524 888 l 518 699 b 589 708 533 703 557 706 b 450 467 556 624 515 550 l 588 379 l 458 379 l 458 213 l 731 213 b 385 22 679 128 574 71 l 483 -156 b 875 81 685 -87 804 -15 b 1229 -146 954 -19 1067 -90 l 1319 26 b 992 213 1163 69 1058 125 z m 456 243 l 382 224 l 382 596 l 465 596 l 465 788 l 382 788 l 382 1097 l 196 1101 l 196 788 l 93 788 l 93 596 l 196 596 l 196 179 b 54 149 142 167 94 156 l 81 -44 b 472 50 176 -19 307 13 l 464 147 z m 593 379 b 651 474 608 401 628 433 l 779 474 b 776 385 779 439 778 408 l 776 379 z "},"堡":{"ha":0,"x_min":0,"x_max":0,"o":"m 203 292 l 378 292 l 378 914 b 456 1082 407 968 433 1025 l 292 1136 b 179 914 267 1068 229 993 b 33 721 131 835 82 771 l 119 558 b 203 650 147 586 175 617 z m 1172 101 l 1172 246 l 772 246 l 772 297 l 926 297 l 926 464 b 1229 283 1004 399 1106 339 l 1306 429 b 1024 557 1201 458 1108 500 l 1261 557 l 1261 700 l 926 700 l 926 756 l 1197 756 l 1197 1088 l 482 1088 l 482 756 l 754 756 l 754 700 l 422 700 l 422 557 l 657 557 b 396 436 596 511 518 475 l 475 292 b 754 463 604 353 688 401 l 754 313 l 592 317 l 592 246 l 185 246 l 185 101 l 592 101 l 592 25 l 90 25 l 90 -124 l 1267 -124 l 1267 25 l 772 25 l 772 101 z m 1015 886 l 665 886 l 665 956 l 1015 956 z "},"塔":{"ha":0,"x_min":0,"x_max":0,"o":"m 1118 771 l 1118 865 l 1263 865 l 1263 1018 l 1118 1018 l 1118 1113 l 938 1118 l 938 1018 l 739 1018 l 739 1113 l 558 1118 l 558 1018 l 453 1018 l 453 865 l 558 865 l 558 771 l 718 771 b 378 540 636 688 506 596 l 465 385 b 597 461 506 406 549 431 l 597 400 l 1086 400 l 1086 469 b 1246 382 1140 435 1194 406 l 1319 547 b 965 771 1179 604 1047 688 z m 454 281 l 357 253 l 357 610 l 460 610 l 460 800 l 357 800 l 357 1110 l 179 1117 l 179 800 l 76 800 l 76 610 l 179 610 l 179 203 b 32 164 90 179 42 165 l 69 -29 b 315 43 114 -18 196 6 b 468 88 376 60 433 78 l 458 194 z m 938 801 l 929 813 l 753 813 l 739 794 l 739 865 l 938 865 z m 717 547 b 843 669 768 589 811 629 b 975 547 874 632 918 592 z m 1186 333 l 503 333 l 503 -117 l 1186 -117 z m 1010 39 l 676 39 l 676 178 l 1010 178 z "},"多":{"ha":0,"x_min":0,"x_max":0,"o":"m 851 518 b 904 571 869 535 888 553 l 804 606 b 1228 853 953 671 1093 754 l 1228 1026 l 725 1026 b 769 1074 732 1032 746 1047 l 582 1126 b 114 828 469 1019 299 911 l 214 683 b 356 756 251 701 299 725 b 519 669 432 715 488 688 b 85 563 383 626 239 592 l 168 406 b 626 536 343 444 496 488 b 117 290 499 442 335 367 l 211 135 b 435 235 301 172 376 206 b 539 178 507 194 542 176 l 608 140 b 74 1 468 90 289 44 l 168 -160 b 660 -25 364 -117 528 -72 b 996 132 792 21 903 74 b 1269 346 1089 190 1181 261 l 1269 518 z m 742 753 b 515 856 704 772 628 807 l 532 867 l 974 867 b 742 753 906 828 828 790 z m 1026 358 b 817 226 961 307 890 264 b 606 328 769 251 699 285 l 653 358 z "},"大":{"ha":0,"x_min":0,"x_max":0,"o":"m 1276 611 l 1276 810 l 789 810 l 789 1108 l 582 1114 l 582 810 l 117 810 l 117 611 l 574 611 b 64 26 531 360 353 176 l 196 -153 b 510 88 329 -74 433 6 b 689 360 586 169 646 260 b 1182 -147 771 165 915 7 l 1313 54 b 790 611 1051 154 867 326 z "},"夫":{"ha":0,"x_min":0,"x_max":0,"o":"m 1251 415 l 1251 603 l 776 603 l 776 756 l 1175 756 l 1175 939 l 778 939 l 778 1107 l 581 1114 l 581 939 l 182 939 l 182 756 l 579 756 l 579 603 l 106 603 l 106 415 l 550 415 b 51 18 489 261 339 139 l 181 -154 b 681 258 438 -32 593 101 b 1186 -154 781 85 946 -43 l 1306 31 b 797 415 1038 131 876 250 z "},"奥":{"ha":0,"x_min":0,"x_max":0,"o":"m 1038 340 l 1207 340 l 1207 1042 l 732 1042 l 754 1108 l 547 1119 l 521 1042 l 157 1042 l 157 340 l 329 340 l 329 885 l 1038 885 z m 761 381 l 761 568 l 994 568 l 994 700 l 929 700 l 982 846 l 842 849 l 790 700 l 761 700 l 761 860 l 601 864 l 601 700 l 571 700 l 513 847 l 375 843 l 433 700 l 372 700 l 372 568 l 540 568 b 343 451 494 528 429 489 l 419 331 b 601 467 493 374 554 418 l 601 381 z m 1017 443 b 833 561 960 483 899 524 l 761 469 b 949 329 807 442 892 381 z m 1313 17 b 821 156 1085 44 933 78 l 1271 156 l 1271 304 l 775 304 l 775 349 l 585 354 l 585 304 l 89 304 l 89 156 l 535 156 b 46 8 451 85 272 36 l 118 -151 b 686 65 417 -92 586 -33 b 1243 -149 804 -36 990 -108 z "},"孟":{"ha":0,"x_min":0,"x_max":0,"o":"m 439 524 l 482 390 l 635 401 b 808 568 789 417 801 422 l 808 588 l 1254 588 l 1254 761 l 847 761 l 1183 917 l 1183 1081 l 226 1081 l 226 906 l 835 906 l 617 807 l 617 761 l 101 761 l 101 588 l 617 588 b 564 532 617 547 607 533 z m 183 389 l 183 53 l 63 53 l 63 -122 l 1296 -122 l 1296 53 l 1174 53 l 1174 389 z m 465 53 l 361 53 l 361 239 l 465 239 z m 628 239 l 729 239 l 729 53 l 628 53 z m 892 239 l 997 239 l 997 53 l 892 53 z "},"宁":{"ha":0,"x_min":0,"x_max":0,"o":"m 1044 682 l 1233 682 l 1233 993 l 807 993 l 779 1125 l 557 1119 l 586 993 l 125 993 l 125 682 l 311 682 l 311 808 l 1044 808 z m 81 615 l 81 431 l 611 431 l 611 125 b 535 51 611 68 596 56 l 399 42 l 453 -154 l 589 -143 b 808 60 767 -125 804 -96 l 808 431 l 1279 431 l 1279 615 z "},"安":{"ha":0,"x_min":0,"x_max":0,"o":"m 1051 708 l 1239 708 l 1239 1008 l 799 1008 l 778 1115 l 564 1110 l 585 1008 l 128 1008 l 128 708 l 315 708 l 315 828 l 1051 828 z m 1292 626 l 654 626 b 710 751 667 650 685 692 l 511 807 b 431 626 482 738 456 678 l 67 626 l 67 446 l 335 446 b 218 264 296 379 257 318 b 538 138 310 231 417 189 b 79 36 432 96 279 63 l 164 -154 b 761 40 453 -97 633 -39 b 1165 -154 893 -18 1028 -83 l 1244 29 b 918 175 1124 86 1014 135 b 1068 446 972 240 1022 331 l 1292 446 z m 850 446 b 726 256 817 367 775 304 b 499 340 622 296 547 325 b 563 446 522 374 543 408 z "},"尔":{"ha":0,"x_min":0,"x_max":0,"o":"m 1051 790 l 943 625 l 1118 557 l 1254 794 l 1254 979 l 518 979 b 563 1083 529 1003 544 1038 l 375 1126 b 249 876 346 1050 303 967 b 86 656 194 786 140 713 l 242 539 b 418 790 304 614 363 697 z m 600 128 b 525 53 600 68 588 57 l 419 44 l 481 -151 l 592 -142 b 797 35 746 -128 797 -99 l 797 729 l 600 732 z m 849 485 b 1004 226 896 414 947 328 b 1144 -40 1061 125 1108 36 l 1311 64 b 1164 328 1274 139 1224 226 b 1007 576 1104 429 1051 513 z m 333 572 b 35 74 268 410 169 244 l 200 -25 b 372 239 260 56 317 143 b 506 500 429 335 474 422 z "},"尚":{"ha":0,"x_min":0,"x_max":0,"o":"m 1001 771 b 1199 967 1069 833 1136 899 l 1065 1096 b 958 988 1039 1067 1004 1031 b 840 881 914 944 875 910 l 943 771 l 778 771 l 778 1104 l 583 1110 l 583 771 l 413 771 l 521 881 b 410 989 496 908 458 944 b 290 1093 361 1033 321 1068 l 161 965 b 264 871 190 940 225 908 b 363 771 303 833 336 800 l 131 771 l 131 -142 l 318 -142 l 318 592 l 1042 592 l 1042 104 b 982 35 1042 53 1031 40 l 950 32 l 950 508 l 408 508 l 408 15 l 885 15 l 935 -151 l 1058 -139 b 1229 57 1199 -125 1229 -90 l 1229 771 z m 575 336 l 785 336 l 785 186 l 575 186 z "},"山":{"ha":0,"x_min":0,"x_max":0,"o":"m 778 79 l 778 1099 l 585 1106 l 585 79 l 329 79 l 329 881 l 136 888 l 136 -117 l 1228 -117 l 1228 881 l 1036 888 l 1036 79 z "},"崴":{"ha":0,"x_min":0,"x_max":0,"o":"m 1179 174 b 1156 78 1174 140 1165 108 b 1119 31 1144 46 1132 31 b 1076 76 1104 31 1090 46 b 1053 124 1065 94 1058 113 b 1226 508 1126 232 1183 360 l 1075 556 b 993 338 1057 479 1029 406 b 956 589 981 396 968 479 l 1261 589 l 1261 735 l 1178 735 l 1164 782 l 1017 776 l 1031 735 l 943 735 b 939 808 940 764 939 789 l 1207 808 l 1207 1064 l 1026 1067 l 1026 963 l 772 963 l 772 1110 l 588 1113 l 588 963 l 333 963 l 333 1061 l 154 1065 l 154 808 l 768 808 l 772 742 l 147 742 l 147 432 b 11 -72 144 183 113 90 l 188 -153 b 296 107 239 -61 275 25 b 328 428 317 189 328 296 l 328 589 l 785 589 b 865 154 806 413 832 267 b 763 53 839 124 804 90 l 710 82 b 785 229 742 124 767 172 l 785 369 l 592 369 l 607 419 l 769 419 l 769 543 l 360 543 l 360 419 l 440 419 l 429 369 l 350 369 l 350 239 l 386 239 b 332 122 368 192 350 153 l 360 108 b 457 54 404 85 436 67 b 281 -12 417 33 357 11 l 356 -147 b 594 -24 454 -107 535 -65 l 703 -89 l 724 -53 l 800 -140 b 938 -18 851 -100 897 -58 b 1114 -156 989 -117 1042 -156 b 1276 -19 1199 -156 1243 -124 b 1307 99 1292 26 1303 67 z m 638 239 b 586 143 622 201 606 169 l 517 175 l 540 239 z "},"州":{"ha":0,"x_min":0,"x_max":0,"o":"m 1050 553 b 935 815 1004 668 965 756 l 854 776 l 854 1068 l 675 1074 l 675 588 b 574 815 639 678 606 754 l 497 778 l 497 1099 l 315 1106 l 315 625 b 71 -42 311 267 268 154 l 246 -154 b 497 599 444 56 492 210 b 590 350 526 525 558 443 l 675 397 l 675 -89 l 854 -89 l 854 613 b 953 351 888 531 921 443 l 1050 406 l 1050 -121 l 1229 -121 l 1229 1099 l 1050 1106 z m 146 819 b 103 597 138 754 124 679 b 42 385 83 515 63 444 l 197 335 b 256 560 215 392 235 467 b 303 789 278 653 293 729 z "},"巴":{"ha":0,"x_min":0,"x_max":0,"o":"m 1103 267 b 1089 158 1101 229 1096 193 b 989 65 1072 79 1063 71 b 731 57 903 60 817 57 b 453 65 640 57 547 60 b 344 172 365 71 344 88 l 344 415 l 1194 415 l 1194 1067 l 147 1067 l 147 113 b 372 -122 147 -67 206 -114 b 714 -131 486 -128 600 -131 b 1054 -122 826 -131 940 -128 b 1283 63 1228 -108 1249 -86 b 1304 200 1294 122 1301 168 z m 344 601 l 344 881 l 579 881 l 579 601 z m 768 881 l 994 881 l 994 601 l 768 601 z "},"布":{"ha":0,"x_min":0,"x_max":0,"o":"m 1288 793 l 1288 981 l 681 981 b 707 1058 688 997 696 1024 l 721 1097 l 529 1128 b 474 981 507 1065 489 1015 l 103 981 l 103 793 l 379 793 b 31 421 292 653 182 533 l 113 231 b 251 350 169 279 217 318 l 251 -53 l 439 -53 l 439 433 l 633 433 l 633 -135 l 821 -135 l 821 433 l 1018 433 l 1018 188 b 960 129 1018 144 1010 133 l 886 121 l 946 -57 l 1021 -49 b 1204 131 1167 -32 1199 -12 l 1204 626 l 821 626 l 821 747 l 640 754 l 640 626 l 499 626 b 599 793 533 675 567 731 z "},"干":{"ha":0,"x_min":0,"x_max":0,"o":"m 782 867 l 1175 867 l 1175 1061 l 185 1061 l 185 867 l 578 867 l 578 589 l 76 589 l 76 393 l 578 393 l 578 -128 l 782 -128 l 782 393 l 1282 393 l 1282 589 l 782 589 z "},"库":{"ha":0,"x_min":0,"x_max":0,"o":"m 942 200 l 942 282 l 1206 282 l 1206 447 l 942 447 l 942 554 l 772 560 l 772 444 l 621 444 b 710 586 646 479 675 526 l 1232 586 l 1232 757 l 796 757 l 824 822 l 661 849 l 1281 849 l 1281 1015 l 850 1015 l 828 1124 l 619 1118 l 644 1015 l 176 1015 l 176 536 b 24 -71 174 264 146 163 l 213 -146 b 301 56 251 -69 281 -3 b 346 258 322 114 336 182 b 361 556 356 336 361 435 l 361 849 l 643 849 b 604 757 631 814 617 783 l 396 757 l 396 586 l 517 586 b 422 439 485 532 454 482 l 422 282 l 757 282 l 757 200 l 350 200 l 350 26 l 757 26 l 757 -136 l 942 -136 l 942 26 l 1296 26 l 1296 200 z "},"彼":{"ha":0,"x_min":0,"x_max":0,"o":"m 1319 8 b 1053 144 1213 49 1124 93 b 1215 447 1125 229 1171 324 l 1215 625 l 960 625 l 960 801 l 1092 801 l 1046 697 l 1213 668 l 1265 799 l 1265 976 l 960 976 l 960 1110 l 781 1115 l 781 976 l 483 976 l 483 614 b 367 -1 481 268 464 171 l 367 546 b 461 704 401 597 433 650 l 313 789 b 189 596 283 731 243 667 b 39 426 135 526 85 469 l 121 244 b 186 313 128 251 150 274 l 186 -135 l 367 -135 l 367 -76 l 493 -150 b 556 -29 510 -121 531 -81 l 640 -157 b 924 19 753 -100 847 -42 b 1221 -157 1001 -40 1100 -99 z m 307 1110 b 192 961 281 1067 242 1018 b 50 814 142 904 94 856 l 158 663 b 324 833 213 711 267 768 b 464 1011 381 899 428 957 z m 658 625 l 658 801 l 781 801 l 781 625 z m 1028 451 b 922 257 1003 378 968 313 b 796 451 868 318 826 383 z m 794 140 b 576 17 735 97 663 56 b 653 350 625 129 646 224 b 794 140 693 271 740 201 z "},"得":{"ha":0,"x_min":0,"x_max":0,"o":"m 342 1125 b 219 976 314 1081 274 1031 b 58 831 167 922 113 874 l 160 667 b 340 835 219 715 281 771 b 489 1015 401 900 451 960 z m 504 582 l 1213 582 l 1213 1078 l 504 1078 z m 689 888 l 689 938 l 1028 938 l 1028 888 z m 342 793 b 203 597 313 739 265 674 b 38 422 140 522 86 464 l 113 233 b 201 319 144 263 175 292 l 201 -137 l 379 -137 l 379 526 b 486 693 428 589 463 644 z m 1028 763 l 1028 714 l 689 714 l 689 763 z m 1146 333 l 1146 386 l 1257 386 l 1257 533 l 474 533 l 474 386 l 967 386 l 967 333 l 428 333 l 428 179 l 557 179 l 508 129 b 607 42 535 108 567 79 b 704 -56 647 4 679 -28 l 821 76 b 733 157 815 81 786 108 l 708 179 l 967 179 l 967 100 b 896 32 967 49 956 39 l 817 24 l 872 -146 l 968 -136 b 1146 25 1114 -117 1140 -108 l 1146 179 l 1296 179 l 1296 333 z "},"德":{"ha":0,"x_min":0,"x_max":0,"o":"m 939 108 b 931 53 938 93 935 74 b 886 18 925 29 914 22 b 824 14 868 15 847 14 b 768 18 803 14 785 15 b 733 72 740 22 733 38 l 733 242 l 574 244 l 574 208 l 458 251 b 350 17 436 183 393 89 l 350 519 b 439 658 386 571 415 618 l 439 481 l 1233 481 l 1233 821 l 929 821 l 929 876 l 1257 876 l 1257 1028 l 929 1028 l 929 1111 l 746 1118 l 746 1028 l 454 1028 l 322 1129 b 199 961 294 1083 253 1028 b 51 797 144 894 94 840 l 156 649 b 294 803 199 692 246 743 b 431 975 344 863 390 919 l 431 876 l 746 876 l 746 821 l 439 821 l 439 679 l 313 774 b 183 586 286 725 243 663 b 25 403 124 510 71 449 l 110 232 b 176 301 139 261 161 285 l 176 -133 l 350 -133 l 350 -28 l 468 -90 b 574 139 504 -25 539 51 l 574 8 b 718 -129 574 -87 617 -122 b 808 -132 756 -131 785 -132 b 919 -129 836 -132 874 -131 b 1076 -25 1025 -125 1060 -97 b 1089 69 1083 8 1088 40 z m 665 601 l 586 601 l 586 700 l 665 700 z m 793 601 l 793 700 l 875 700 l 875 601 z m 1006 700 l 1083 700 l 1083 601 l 1006 601 z m 413 429 l 413 281 l 783 281 l 736 239 b 867 78 775 200 829 133 l 979 185 b 897 281 956 215 929 247 l 1260 281 l 1260 429 z m 1031 190 b 1111 56 1053 158 1079 113 b 1188 -94 1143 -1 1168 -51 l 1325 -6 b 1249 132 1306 35 1281 81 b 1164 265 1217 183 1189 228 z "},"戈":{"ha":0,"x_min":0,"x_max":0,"o":"m 1136 275 b 1117 218 1132 265 1126 250 l 1085 131 b 1013 60 1064 79 1044 60 b 889 146 975 60 935 89 b 829 235 868 172 847 201 b 1175 533 960 322 1075 421 l 1043 672 l 1268 692 l 1256 888 l 1032 868 l 1088 950 b 979 1035 1063 974 1026 1001 b 860 1113 932 1068 892 1094 l 763 982 b 933 860 819 947 876 906 l 681 838 b 654 1115 667 963 658 1056 l 465 1110 b 490 821 467 1050 475 954 l 100 786 l 111 590 l 513 625 b 582 319 531 510 553 408 b 65 126 431 242 258 178 l 158 -68 b 660 135 350 -10 517 58 b 771 -24 692 75 728 22 b 1013 -149 856 -119 928 -149 b 1219 -8 1103 -149 1174 -110 b 1257 88 1233 21 1246 53 l 1278 150 z m 1043 672 b 753 419 965 579 868 494 b 704 642 735 479 719 553 z "},"托":{"ha":0,"x_min":0,"x_max":0,"o":"m 533 603 l 432 574 l 432 713 l 556 713 l 556 901 l 432 901 l 432 1107 l 250 1113 l 250 901 l 97 901 l 97 713 l 250 713 l 250 525 l 43 474 l 76 288 l 250 333 l 250 113 b 185 49 250 67 236 54 l 108 40 l 160 -149 l 257 -140 b 432 33 406 -124 426 -107 l 432 383 l 546 417 l 539 501 z m 1119 263 b 1108 139 1118 226 1115 185 b 1035 61 1097 71 1094 67 b 954 61 1008 60 981 60 b 907 131 915 65 907 76 l 907 414 l 1283 457 l 1265 646 l 907 604 l 907 844 b 1219 913 1047 872 1151 894 l 1181 1097 b 869 1028 1100 1076 996 1053 b 563 976 743 1003 642 986 l 592 792 b 717 811 625 796 667 801 l 717 582 l 553 563 l 571 376 l 717 393 l 717 82 b 914 -124 717 -79 758 -118 b 990 -126 949 -125 975 -126 b 1065 -124 1007 -126 1032 -125 b 1274 31 1204 -118 1251 -97 b 1294 204 1282 82 1289 139 z "},"拉":{"ha":0,"x_min":0,"x_max":0,"o":"m 521 481 l 514 588 l 399 554 l 399 715 l 501 715 l 501 897 l 399 897 l 399 1106 l 221 1113 l 221 897 l 90 897 l 90 715 l 221 715 l 221 507 l 38 463 l 68 272 l 115 285 l 221 313 l 221 94 b 169 40 221 56 207 44 l 81 31 l 131 -150 l 233 -140 b 399 21 372 -126 399 -108 l 399 360 b 529 397 417 364 460 376 z m 990 924 l 967 1046 l 957 1100 l 753 1092 l 788 924 l 546 924 l 546 744 l 1256 744 l 1256 924 z m 1035 83 b 1129 376 1064 169 1096 267 b 1207 656 1163 486 1189 579 l 1018 710 b 940 397 1003 632 976 528 b 847 83 906 268 874 163 l 451 83 l 451 -94 l 1293 -94 l 1293 83 z m 867 196 b 800 456 851 269 829 356 b 719 707 771 556 744 639 l 546 654 b 624 396 567 592 593 506 b 690 136 656 286 678 199 z "},"拜":{"ha":0,"x_min":0,"x_max":0,"o":"m 456 893 b 618 933 524 908 578 921 l 583 1101 b 340 1042 510 1081 428 1060 b 92 1001 253 1024 171 1011 l 121 833 l 276 858 l 276 719 l 126 719 l 126 550 l 276 550 b 272 399 276 493 275 443 l 74 399 l 74 222 l 251 222 b 192 76 239 165 218 117 b 71 -67 165 36 125 -12 l 239 -171 b 368 8 296 -111 339 -51 b 435 222 399 68 421 139 l 592 222 l 592 399 l 453 399 b 456 550 454 460 456 510 l 594 550 l 594 719 l 456 719 z m 1018 363 l 1221 363 l 1221 531 l 1018 531 l 1018 622 l 1221 622 l 1221 790 l 1018 790 l 1018 885 l 1247 885 l 1247 1051 l 639 1051 l 639 885 l 838 885 l 838 790 l 650 790 l 650 622 l 838 622 l 838 531 l 650 531 l 650 363 l 838 363 l 838 274 l 596 274 l 596 101 l 838 101 l 838 -139 l 1018 -139 l 1018 101 l 1297 101 l 1297 274 l 1018 274 z "},"提":{"ha":0,"x_min":0,"x_max":0,"o":"m 975 131 l 1217 131 l 1217 281 l 975 281 l 975 358 l 1269 358 l 1269 514 l 471 514 l 471 358 l 797 358 l 797 75 b 683 208 749 99 715 140 b 703 319 692 247 699 285 l 535 338 b 489 144 526 260 511 196 b 381 -11 468 94 432 43 l 381 11 l 381 389 l 442 410 l 468 419 l 464 517 l 463 611 l 381 582 l 381 711 l 483 711 l 483 894 l 381 894 l 381 1096 l 201 1103 l 201 894 l 82 894 l 82 711 l 201 711 l 201 524 b 39 472 149 506 94 489 l 57 281 l 131 306 l 201 329 l 201 90 b 144 36 201 53 185 42 l 78 28 l 133 -154 l 215 -144 b 372 -65 321 -133 357 -117 l 493 -157 b 624 29 550 -93 594 -31 b 947 -126 696 -81 790 -119 b 1078 -129 976 -128 1019 -129 b 1275 -122 1154 -129 1221 -126 l 1313 49 b 1100 42 1232 44 1161 42 b 975 44 1072 42 1031 43 z m 529 561 l 1203 561 l 1203 1078 l 529 1078 z m 711 886 l 711 939 l 1019 939 l 1019 886 z m 1019 750 l 1019 699 l 711 699 l 711 750 z "},"敦":{"ha":0,"x_min":0,"x_max":0,"o":"m 1333 17 b 1078 256 1226 96 1142 176 b 1221 758 1156 393 1199 553 l 1283 758 l 1283 939 l 971 939 b 1010 1092 981 976 994 1026 l 836 1122 b 772 890 824 1050 803 972 b 674 669 743 808 710 735 l 674 826 l 124 826 l 124 549 l 674 549 l 674 585 l 746 463 l 774 501 b 872 254 794 418 828 336 b 574 -3 807 175 708 89 l 686 -150 b 972 104 806 -67 901 18 b 1218 -140 1038 21 1119 -61 z m 486 1029 b 467 1119 479 1074 474 1104 l 289 1113 l 313 1029 l 92 1029 l 92 879 l 718 879 l 718 1029 z m 975 418 b 888 707 933 503 904 599 l 908 758 l 1061 758 b 975 418 1044 621 1015 508 z m 286 714 l 513 714 l 513 665 l 286 665 z m 721 278 l 508 261 l 693 364 l 693 500 l 118 500 l 118 360 l 457 360 l 326 293 l 326 247 b 54 228 228 239 136 232 l 64 79 l 326 101 l 326 76 b 261 11 326 32 313 17 l 189 4 l 238 -147 l 339 -139 b 496 21 453 -131 496 -99 l 496 115 l 724 132 z "},"斯":{"ha":0,"x_min":0,"x_max":0,"o":"m 914 707 l 914 860 b 1093 890 968 867 1028 878 b 1269 933 1158 904 1218 918 l 1221 1117 b 997 1063 1157 1097 1082 1079 b 747 1028 913 1047 829 1035 l 747 560 b 735 238 746 417 742 308 b 688 43 728 167 711 101 b 561 175 642 94 600 138 l 708 175 l 708 335 l 647 335 l 647 846 l 708 846 l 708 1001 l 647 1001 l 647 1100 l 485 1107 l 485 1001 l 326 1001 l 326 1100 l 164 1107 l 164 1001 l 100 1001 l 100 846 l 164 846 l 164 335 l 67 335 l 67 175 l 235 175 b 50 -22 178 96 117 29 l 181 -144 b 385 100 261 -60 329 21 l 283 175 l 494 175 l 414 106 b 565 -71 476 35 528 -24 l 681 28 b 631 -67 668 1 651 -29 l 799 -157 b 871 21 831 -94 856 -35 b 904 215 888 76 899 142 b 914 515 911 289 914 389 l 914 519 l 1015 519 l 1015 -122 l 1183 -122 l 1183 519 l 1301 519 l 1301 707 z m 326 771 l 326 846 l 485 846 l 485 771 z m 485 553 l 326 553 l 326 626 l 485 626 z m 485 335 l 326 335 l 326 408 l 485 408 z "},"新":{"ha":0,"x_min":0,"x_max":0,"o":"m 922 699 l 922 850 b 1111 882 982 857 1044 867 b 1274 929 1178 897 1232 913 l 1217 1108 b 1003 1054 1160 1088 1088 1069 b 753 1019 918 1039 835 1026 l 753 556 b 742 300 751 449 749 364 b 707 126 736 236 725 178 b 606 278 689 156 656 206 l 499 210 l 499 293 l 708 293 l 708 453 l 499 453 l 499 542 l 717 542 l 717 701 l 615 701 l 647 854 l 706 854 l 706 1011 l 510 1011 l 490 1121 l 303 1114 l 324 1011 l 113 1011 l 113 854 l 169 854 l 201 701 l 72 701 l 72 542 l 328 542 l 328 453 l 97 453 l 97 293 l 328 293 l 328 110 b 271 28 328 42 321 33 l 225 22 l 276 -150 l 349 -144 b 499 10 485 -126 494 -110 l 499 171 b 594 19 525 136 557 85 l 692 88 b 607 -69 672 40 644 -12 l 778 -156 b 922 514 894 65 919 175 l 922 515 l 1011 515 l 1011 -136 l 1186 -136 l 1186 515 l 1296 515 l 1296 699 z m 453 701 l 363 701 l 336 854 l 483 854 z m 167 282 b 24 -8 135 186 78 65 l 161 -79 b 240 65 185 -42 211 6 b 310 218 269 125 293 176 z "},"昆":{"ha":0,"x_min":0,"x_max":0,"o":"m 186 515 l 1178 515 l 1178 1076 l 186 1076 z m 372 861 l 372 918 l 990 918 l 990 861 z m 990 725 l 990 669 l 372 669 l 372 725 z m 1124 194 b 1114 106 1122 161 1119 132 b 1032 42 1104 54 1093 47 b 978 39 1008 40 990 39 b 924 42 965 39 947 40 b 861 111 879 46 861 60 l 861 179 b 1071 256 922 200 992 225 b 1254 332 1150 286 1211 311 l 1171 501 b 1036 438 1139 483 1094 463 b 861 367 978 413 919 389 l 861 479 l 675 485 l 675 35 b 813 -129 675 -81 717 -124 b 942 -132 842 -131 885 -132 b 1072 -129 1000 -132 1043 -131 b 1286 10 1217 -121 1267 -96 b 1300 139 1293 47 1297 90 z m 374 226 l 633 226 l 633 400 l 374 400 l 374 478 l 186 483 l 186 117 b 132 14 186 60 178 40 l 199 -153 b 308 -119 231 -140 267 -129 l 438 -87 b 638 -39 535 -62 601 -46 l 632 147 b 374 81 511 115 425 93 z "},"明":{"ha":0,"x_min":0,"x_max":0,"o":"m 667 613 b 661 383 667 517 665 440 b 639 236 657 328 650 279 b 588 118 628 194 611 156 l 588 1049 l 119 1049 l 119 32 l 522 32 b 440 -54 499 6 472 -22 l 603 -175 b 821 235 725 -43 789 75 l 1069 235 l 1069 99 b 1013 40 1069 54 1061 46 l 911 31 l 968 -150 l 1054 -142 b 1242 46 1206 -124 1236 -101 l 1242 1071 l 667 1071 z m 843 732 l 843 883 l 1069 883 l 1069 732 z m 288 633 l 288 861 l 424 861 l 424 633 z m 840 413 b 843 513 842 456 843 489 l 843 557 l 1069 557 l 1069 413 z m 424 454 l 424 221 l 288 221 l 288 454 z "},"曼":{"ha":0,"x_min":0,"x_max":0,"o":"m 215 682 l 1140 682 l 1140 1086 l 215 1086 z m 400 929 l 400 976 l 958 976 l 958 929 z m 958 832 l 958 786 l 400 786 l 400 832 z m 128 344 l 1229 344 l 1229 636 l 128 636 z m 453 454 l 306 454 l 306 529 l 453 529 z m 607 454 l 607 529 l 753 529 l 753 454 z m 907 529 l 1054 529 l 1054 454 l 907 454 z m 1310 6 b 943 43 1190 13 1068 25 b 1181 160 1017 74 1096 113 l 1181 300 l 199 300 l 199 167 l 249 167 b 444 51 317 121 382 82 b 49 1 325 31 193 14 l 115 -156 b 681 -46 351 -121 540 -85 b 1264 -154 851 -100 1035 -132 z m 925 167 b 686 96 846 138 765 114 b 499 167 621 115 558 139 z "},"木":{"ha":0,"x_min":0,"x_max":0,"o":"m 1243 701 l 1243 901 l 776 901 l 776 1108 l 586 1114 l 586 901 l 119 901 l 119 701 l 547 701 b 31 172 446 519 274 343 l 174 0 b 586 449 358 157 485 293 l 586 -137 l 776 -137 l 776 443 b 1192 8 878 299 1015 154 l 1329 182 b 1014 436 1203 271 1099 356 b 807 701 929 518 861 606 z "},"本":{"ha":0,"x_min":0,"x_max":0,"o":"m 1236 742 l 1236 932 l 779 932 l 779 1107 l 582 1113 l 582 932 l 126 932 l 126 742 l 472 742 b 22 174 374 531 238 356 l 161 6 b 335 197 235 81 293 144 l 335 65 l 582 65 l 582 -139 l 779 -139 l 779 65 l 1026 65 l 1026 194 b 1204 10 1076 135 1136 72 l 1338 190 b 883 742 1121 357 983 524 z m 372 244 b 582 606 458 360 528 479 l 582 244 z m 779 588 b 986 244 833 465 903 351 l 779 244 z "},"杜":{"ha":0,"x_min":0,"x_max":0,"o":"m 1244 557 l 1244 747 l 1031 747 l 1031 1111 l 839 1118 l 839 747 l 632 747 l 632 557 l 839 557 l 839 93 l 531 93 l 531 -97 l 1296 -97 l 1296 93 l 1031 93 l 1031 557 z m 676 414 b 585 513 653 442 622 475 b 497 597 549 551 519 579 l 444 547 l 444 708 l 603 708 l 603 893 l 444 893 l 444 1104 l 258 1111 l 258 893 l 88 893 l 88 708 l 247 708 b 31 315 190 543 118 413 l 110 128 b 258 365 160 190 210 269 l 258 -136 l 444 -136 l 444 426 b 564 282 479 388 518 339 z "},"林":{"ha":0,"x_min":0,"x_max":0,"o":"m 1347 219 b 1028 707 1190 381 1088 528 l 1260 707 l 1260 896 l 1014 896 l 1014 1100 l 824 1107 l 824 896 l 658 896 l 658 707 l 804 707 b 485 179 742 511 644 350 l 610 24 b 824 367 697 125 768 239 l 824 -137 l 1014 -137 l 1014 378 b 1235 42 1078 243 1151 132 z m 669 482 b 508 636 629 528 560 593 l 471 593 l 471 710 l 615 710 l 615 896 l 471 896 l 471 1097 l 282 1104 l 282 896 l 104 896 l 104 710 l 265 710 b 24 294 208 565 118 415 l 113 86 b 282 372 169 163 226 257 l 282 -136 l 471 -136 l 471 443 b 564 340 499 417 529 382 z "},"柏":{"ha":0,"x_min":0,"x_max":0,"o":"m 967 944 l 1010 1096 l 813 1124 b 768 946 800 1063 785 1003 l 561 946 l 561 479 b 444 621 515 542 476 589 l 404 585 l 404 707 l 519 707 l 519 893 l 404 893 l 404 1104 l 225 1111 l 225 893 l 96 893 l 96 707 l 214 707 b 21 342 171 585 107 463 l 117 169 b 225 381 154 233 190 304 l 225 -133 l 404 -133 l 404 433 b 478 317 442 378 465 339 l 561 406 l 561 -122 l 1244 -122 l 1244 944 z m 740 519 l 740 758 l 1065 758 l 1065 519 z m 1065 340 l 1065 56 l 740 56 l 740 340 z "},"森":{"ha":0,"x_min":0,"x_max":0,"o":"m 142 522 b 583 729 328 585 475 653 l 583 540 l 767 540 l 767 728 b 1215 526 875 657 1025 590 l 1294 697 b 833 860 1088 747 944 794 l 1215 860 l 1215 1019 l 767 1019 l 767 1118 l 583 1126 l 583 1019 l 139 1019 l 139 860 l 526 860 b 69 696 422 794 286 747 z m 494 222 l 494 301 l 649 301 l 649 467 l 494 467 l 494 574 l 314 579 l 314 467 l 111 467 l 111 301 l 285 301 b 22 65 222 213 135 133 l 121 -82 b 314 110 199 -19 263 44 l 314 -140 l 494 -140 l 494 131 b 571 54 511 115 536 90 l 671 175 b 542 276 644 201 601 235 z m 1247 301 l 1247 467 l 1019 467 l 1019 574 l 842 579 l 842 467 l 700 467 l 700 301 l 813 301 b 581 22 739 188 663 94 l 679 -96 b 842 107 742 -35 796 33 l 842 -140 l 1019 -140 l 1019 128 b 1243 -83 1083 53 1158 -18 l 1333 74 b 1050 301 1207 146 1113 222 z "},"比":{"ha":0,"x_min":0,"x_max":0,"o":"m 1118 307 b 1107 157 1117 253 1113 203 b 1029 79 1099 86 1090 82 l 939 79 b 875 156 881 82 875 92 l 875 443 b 1088 590 942 485 1013 533 b 1286 757 1163 647 1229 703 l 1167 919 b 1038 799 1135 885 1092 844 b 875 675 983 754 929 713 l 875 1097 l 682 1104 l 682 83 b 863 -111 682 -57 731 -106 b 974 -114 913 -112 950 -114 b 1064 -111 993 -114 1024 -112 b 1282 78 1217 -100 1263 -54 b 1297 247 1292 168 1296 225 z m 361 556 l 628 556 l 628 750 l 361 750 l 361 1088 l 171 1094 l 171 150 b 122 57 171 96 163 79 l 200 -139 b 342 -79 244 -117 292 -97 b 639 29 421 -47 519 -11 l 629 236 l 547 207 l 361 142 z "},"毕":{"ha":0,"x_min":0,"x_max":0,"o":"m 686 571 b 829 400 686 449 729 404 b 949 397 875 399 915 397 b 1069 400 981 397 1021 399 b 1272 551 1208 406 1247 436 b 1290 674 1282 599 1288 639 l 1115 732 b 1107 646 1115 706 1113 678 b 1038 571 1096 583 1086 572 b 978 569 1025 569 1004 569 b 935 571 958 569 944 569 b 876 638 892 575 876 586 l 876 707 b 1072 794 932 731 997 760 b 1246 885 1147 831 1206 861 l 1154 1057 b 876 903 1092 1013 976 949 l 876 1103 l 686 1108 z m 224 353 b 356 397 271 371 315 386 b 647 489 486 440 583 471 l 640 674 b 532 642 608 664 572 653 b 388 599 500 632 453 617 l 388 763 l 635 763 l 635 939 l 388 939 l 388 1100 l 197 1107 l 197 635 b 146 526 197 572 190 553 z m 585 279 l 74 279 l 74 97 l 585 97 l 585 -137 l 778 -137 l 778 97 l 1290 97 l 1290 279 l 778 279 l 778 403 l 585 408 z "},"沃":{"ha":0,"x_min":0,"x_max":0,"o":"m 483 931 b 361 1024 457 954 415 986 b 229 1111 307 1063 264 1092 l 126 961 b 261 869 161 940 207 910 b 388 767 315 829 358 794 z m 1263 461 l 1263 653 l 942 653 l 942 854 b 1225 893 1051 867 1146 881 l 1186 1090 b 844 1036 1092 1071 978 1053 b 499 1007 711 1021 596 1011 l 524 815 b 746 833 610 821 683 826 l 746 653 l 461 653 l 461 461 l 725 461 b 333 10 682 285 565 150 l 469 -157 b 849 238 654 -33 776 94 b 1200 -160 919 83 1033 -43 l 1328 15 b 950 461 1133 131 1007 276 z m 426 596 b 296 694 392 625 347 658 b 163 782 244 732 200 761 l 58 626 b 188 535 90 606 133 575 b 328 425 242 494 288 457 z m 272 394 b 178 163 257 350 226 272 b 75 -53 129 53 96 -18 l 251 -139 b 354 86 272 -99 307 -24 b 443 310 401 196 431 271 z "},"沙":{"ha":0,"x_min":0,"x_max":0,"o":"m 1325 528 b 1224 754 1303 585 1269 660 b 1115 967 1179 849 1143 919 l 958 897 b 1061 685 986 849 1021 778 b 1163 439 1103 592 1136 510 l 1081 507 b 949 344 1040 444 996 390 l 949 1108 l 761 1114 l 761 311 l 914 311 b 361 18 785 193 611 101 l 468 -165 b 1228 383 844 -15 1029 110 l 1163 438 z m 478 935 b 363 1022 454 957 415 986 b 232 1106 310 1058 267 1086 l 132 951 b 261 864 167 931 210 901 b 385 768 314 826 356 794 z m 571 361 b 675 636 606 443 640 535 b 758 904 710 738 738 826 l 592 958 b 393 435 543 786 471 594 z m 406 606 b 285 700 374 632 333 664 b 157 788 236 736 193 765 l 53 631 b 178 542 85 611 126 582 b 308 436 229 503 274 468 z m 256 378 b 164 157 240 335 210 261 b 64 -51 118 53 85 -17 l 240 -139 b 338 75 260 -101 292 -31 b 428 294 383 182 414 254 z "},"河":{"ha":0,"x_min":0,"x_max":0,"o":"m 110 961 b 235 871 143 940 185 910 b 354 775 286 832 325 800 l 451 938 b 338 1025 428 958 389 988 b 211 1111 286 1063 244 1092 z m 454 1051 l 454 868 l 1018 868 l 1018 128 b 935 43 1018 60 1004 49 l 801 33 l 854 -153 l 992 -142 b 1203 65 1161 -128 1203 -93 l 1203 868 l 1300 868 l 1300 1051 z m 46 640 b 175 551 79 621 122 592 b 310 444 228 513 272 476 l 408 610 b 276 710 371 642 326 675 b 151 794 228 746 186 774 z m 465 164 l 925 164 l 925 763 l 465 763 z m 632 592 l 765 592 l 765 336 l 632 336 z m 254 -131 b 331 94 267 -97 293 -22 b 406 332 369 213 394 292 l 225 399 b 151 165 215 358 190 281 b 69 -64 114 51 86 -25 z "},"法":{"ha":0,"x_min":0,"x_max":0,"o":"m 1294 383 l 1294 571 l 940 571 l 940 749 l 1225 749 l 1225 938 l 940 938 l 940 1110 l 739 1115 l 739 938 l 497 938 l 497 749 l 739 749 l 739 571 l 424 571 l 424 383 l 638 383 b 554 236 610 332 582 282 b 493 144 528 190 507 160 b 404 75 471 110 453 93 l 465 -110 b 576 -94 499 -103 536 -97 b 1071 -57 767 -76 931 -64 b 1121 -156 1089 -89 1106 -122 l 1288 -49 b 1165 158 1257 8 1217 76 b 1038 350 1114 240 1072 304 l 886 274 b 978 118 915 228 946 175 l 682 99 b 765 224 706 128 733 169 b 856 383 799 278 829 332 z m 471 929 b 356 1015 446 951 407 981 b 225 1100 304 1051 260 1079 l 124 950 b 254 860 158 928 203 897 b 375 767 307 822 347 790 z m 413 596 b 288 692 381 624 339 656 b 153 783 238 729 193 760 l 49 632 b 181 538 82 611 126 579 b 314 431 235 497 279 461 z m 242 386 b 165 150 222 313 197 235 b 69 -72 135 67 103 -7 l 257 -140 b 425 319 306 -39 361 114 z "},"泡":{"ha":0,"x_min":0,"x_max":0,"o":"m 1169 169 b 1218 328 1201 199 1217 251 l 1221 688 b 1224 1001 1222 838 1224 942 l 746 1001 l 761 1039 l 781 1089 l 593 1119 b 361 700 549 982 465 832 l 464 618 l 464 54 b 660 -129 464 -79 525 -124 b 863 -133 728 -132 796 -133 b 1065 -129 931 -133 999 -132 b 1286 -6 1210 -122 1264 -90 b 1307 118 1297 36 1304 78 z m 456 932 b 338 1022 428 956 389 985 b 213 1111 286 1060 244 1090 l 111 957 b 231 868 142 936 182 906 b 350 772 279 831 319 799 z m 1049 821 b 1042 376 1049 653 1046 504 b 986 296 1040 315 1026 300 l 958 293 l 958 733 l 604 733 b 657 821 617 753 635 782 z m 407 597 b 285 692 375 624 333 656 b 154 785 236 728 192 758 l 49 628 b 175 533 82 604 124 574 b 303 429 226 493 268 458 z m 631 419 l 631 551 l 797 551 l 797 419 z m 254 -129 b 339 99 269 -93 297 -17 b 417 326 381 215 407 292 l 238 393 b 160 168 228 354 201 279 b 71 -62 119 58 89 -19 z m 1118 113 b 1026 53 1111 68 1088 57 b 872 49 975 50 924 49 b 717 53 821 49 769 50 b 631 138 649 57 631 72 l 631 242 l 919 242 l 958 122 l 1064 131 b 1125 143 1086 132 1107 136 z "},"海":{"ha":0,"x_min":0,"x_max":0,"o":"m 1306 494 l 1201 494 l 1210 790 l 608 790 l 650 856 l 1258 856 l 1258 1022 l 736 1022 l 767 1096 l 589 1115 b 361 763 540 994 457 864 l 479 654 l 463 494 l 382 494 l 382 350 l 225 407 b 151 165 214 358 189 278 b 65 -74 114 53 86 -26 l 242 -135 b 314 92 257 -93 281 -18 b 385 333 349 201 372 282 l 446 333 l 417 42 l 1003 42 b 926 -7 996 8 976 -3 l 833 -15 l 883 -153 l 1006 -143 b 1188 42 1149 -126 1174 -111 l 1264 42 l 1264 194 l 1192 194 l 1196 333 l 1306 333 z m 439 939 b 208 1107 376 992 300 1047 l 106 967 b 222 879 135 946 174 917 b 339 786 271 842 310 811 z m 390 626 b 274 717 361 650 322 681 b 153 803 225 753 185 782 l 50 661 b 168 572 81 640 119 611 b 289 468 217 533 257 499 z m 765 639 l 714 579 b 739 560 719 575 728 569 l 818 494 l 635 494 l 650 639 z m 906 494 l 958 556 b 844 639 939 572 901 600 l 1029 639 b 1025 494 1029 608 1028 560 z m 735 333 l 689 281 b 799 194 711 265 747 236 l 604 194 l 618 333 z m 883 194 l 938 256 b 829 333 914 276 878 301 l 1019 333 l 1013 194 z "},"港":{"ha":0,"x_min":0,"x_max":0,"o":"m 1319 390 b 1063 581 1203 451 1124 508 l 1264 581 l 1264 740 l 1061 740 l 1061 844 l 1229 844 l 1229 1003 l 1061 1003 l 1061 1108 l 886 1114 l 886 1003 l 719 1003 l 719 1108 l 543 1114 l 543 1003 l 415 1003 l 415 943 b 304 1029 385 968 347 997 b 194 1107 261 1061 225 1088 l 94 963 b 203 881 122 944 158 918 b 321 781 249 843 288 810 l 415 936 l 415 844 l 543 844 l 543 740 l 364 740 l 364 625 b 264 707 338 649 304 675 b 157 789 224 739 189 767 l 51 636 b 157 551 81 615 117 586 b 267 454 197 517 235 485 l 364 607 l 364 581 l 524 581 b 276 365 461 497 365 414 l 300 329 l 192 363 b 135 149 183 321 164 250 b 63 -86 106 47 81 -31 l 239 -135 b 324 163 258 -61 286 38 l 349 250 l 379 201 l 453 260 l 453 42 b 619 -132 453 -96 507 -126 b 821 -136 688 -135 756 -136 b 1022 -132 889 -136 956 -135 b 1208 17 1160 -124 1192 -92 b 1226 119 1217 60 1222 93 l 1088 161 l 1088 336 b 1243 229 1138 297 1189 261 z m 886 740 l 719 740 l 719 844 l 886 844 z m 886 581 b 943 488 901 551 919 519 l 658 488 b 715 581 682 522 701 554 z m 921 275 l 631 275 l 631 344 l 921 344 z m 1054 89 b 974 25 1047 38 1035 29 b 831 21 926 22 879 21 b 688 25 785 21 736 22 b 631 94 642 26 631 44 l 631 122 l 1058 122 z "},"漂":{"ha":0,"x_min":0,"x_max":0,"o":"m 610 925 l 610 864 l 396 864 l 396 526 l 1228 526 l 1228 864 l 1019 864 l 1019 925 l 1247 925 l 1247 1075 l 389 1075 l 389 960 b 197 1104 335 1006 253 1069 l 90 961 b 196 882 117 946 151 919 b 307 786 242 846 278 814 l 400 925 z m 775 925 l 851 925 l 851 864 l 775 864 z m 374 617 b 264 704 346 640 310 669 b 144 792 218 739 179 768 l 44 647 b 153 561 72 626 108 599 b 272 461 199 525 238 492 z m 631 653 l 550 653 l 550 733 l 631 733 z m 851 653 l 775 653 l 775 733 l 851 733 z m 997 733 l 1079 733 l 1079 653 l 997 653 z m 431 482 l 431 357 l 1199 357 l 1199 482 z m 193 413 b 135 168 185 367 165 285 b 61 -85 104 53 79 -32 l 239 -133 b 306 117 257 -71 279 13 b 363 367 332 221 350 304 z m 1268 172 l 1268 313 l 375 313 l 375 172 l 531 172 b 303 -7 468 110 376 38 l 401 -133 b 542 -25 443 -106 490 -69 b 664 89 594 18 635 57 l 582 172 l 740 172 l 740 69 b 676 4 740 24 726 10 l 611 -1 l 658 -150 l 760 -140 b 903 1 869 -129 903 -104 l 903 172 l 1036 172 l 953 67 b 1074 -26 988 43 1028 11 b 1197 -136 1121 -65 1163 -101 l 1293 1 b 1188 88 1267 25 1231 54 b 1075 172 1144 122 1107 150 z "},"特":{"ha":0,"x_min":0,"x_max":0,"o":"m 1293 711 l 990 711 l 990 808 l 1222 808 l 1222 981 l 990 981 l 990 1104 l 814 1110 l 814 981 l 593 981 l 593 808 l 814 808 l 814 711 l 554 711 l 554 858 l 454 858 l 454 1097 l 275 1104 l 275 858 l 224 858 l 235 989 l 93 1000 b 36 507 83 832 63 642 l 181 483 b 207 682 190 549 200 614 l 275 682 l 275 444 b 31 376 167 413 85 389 l 71 172 b 275 240 106 185 174 208 l 275 -143 l 454 -143 l 454 299 l 546 326 l 522 522 l 454 500 l 454 682 l 526 682 l 526 531 l 967 531 l 967 435 l 569 435 l 569 257 l 643 257 l 574 194 b 653 106 593 175 619 146 b 733 3 686 65 713 32 l 863 133 b 751 257 847 154 810 194 l 967 257 l 967 119 b 893 39 967 60 953 46 l 808 31 l 860 -146 l 947 -137 b 1144 44 1113 -118 1139 -101 l 1144 257 l 1258 257 l 1258 435 l 1144 435 l 1144 531 l 1293 531 z "},"班":{"ha":0,"x_min":0,"x_max":0,"o":"m 675 1110 l 675 560 b 657 294 674 447 668 360 b 594 119 646 229 625 171 b 453 -60 564 68 517 8 l 604 -167 b 832 576 785 35 828 176 l 832 1103 z m 1258 415 l 1258 600 l 1150 600 l 1150 879 l 1267 879 l 1267 1061 l 871 1061 l 871 879 l 975 879 l 975 600 l 874 600 l 874 415 l 975 415 l 975 79 l 813 79 l 813 -101 l 1297 -101 l 1297 79 l 1150 79 l 1150 415 z m 485 213 l 361 181 l 361 433 l 444 433 l 444 617 l 361 617 l 361 860 l 467 860 l 467 1042 l 86 1042 l 86 860 l 192 860 l 192 617 l 97 617 l 97 433 l 192 433 l 192 140 l 135 128 b 50 111 101 122 72 115 l 75 -75 l 226 -37 b 503 31 386 1 478 24 z m 603 271 b 626 928 618 468 626 688 l 496 935 l 496 860 b 467 285 496 669 486 478 z "},"瓜":{"ha":0,"x_min":0,"x_max":0,"o":"m 733 869 l 882 885 b 958 324 892 667 917 481 b 1156 -132 1001 167 1067 15 l 1332 -24 b 1176 244 1267 72 1214 161 b 1090 526 1139 329 1111 422 b 1054 906 1071 631 1058 757 l 1185 924 l 1136 1114 b 210 1026 843 1065 533 1036 l 210 675 b 193 392 210 560 204 465 b 140 188 183 318 165 250 b 31 -25 117 126 79 56 l 190 -142 b 388 621 340 121 388 293 l 388 840 l 554 853 l 554 681 b 528 394 554 585 546 489 b 463 167 511 300 489 224 b 386 65 435 106 419 83 l 446 -117 b 529 -94 485 -104 513 -97 b 821 -44 600 -79 697 -62 l 832 -83 l 847 -137 l 1011 -62 b 922 185 990 0 961 83 b 825 424 883 286 851 367 l 703 379 l 711 403 b 733 713 726 486 733 589 z m 604 106 b 690 344 644 183 672 263 l 693 354 b 768 131 718 288 743 213 z "},"申":{"ha":0,"x_min":0,"x_max":0,"o":"m 775 1107 l 581 1113 l 581 968 l 138 968 l 138 119 l 581 119 l 581 -135 l 775 -135 l 775 119 l 1219 119 l 1219 968 l 775 968 z m 329 638 l 329 785 l 581 785 l 581 638 z m 775 638 l 775 785 l 1025 785 l 1025 638 z m 581 458 l 581 307 l 329 307 l 329 458 z m 1025 458 l 1025 307 l 775 307 l 775 458 z "},"皎":{"ha":0,"x_min":0,"x_max":0,"o":"m 1317 7 b 1014 194 1188 67 1086 129 b 1136 433 1058 258 1099 338 l 1175 379 l 1296 507 b 1185 646 1268 544 1231 590 b 1064 786 1139 701 1099 749 l 1257 786 l 1257 978 l 1001 978 l 976 1108 l 786 1103 l 815 978 l 586 978 l 586 786 l 725 786 b 543 529 681 707 608 603 l 543 931 l 381 931 l 415 1085 l 238 1097 l 201 931 l 96 931 l 96 -36 l 488 -36 l 575 -172 b 900 60 713 -96 821 -19 b 1210 -165 985 -26 1089 -101 z m 921 704 b 1115 461 983 632 1049 551 l 983 515 b 901 329 961 444 933 383 b 813 513 867 383 836 444 l 721 472 b 885 708 783 549 838 628 l 765 786 l 1025 786 z m 265 733 l 376 733 l 376 543 l 265 543 z m 543 458 l 629 364 l 676 417 b 790 194 706 339 743 265 b 543 26 728 135 646 79 z m 376 353 l 376 156 l 265 156 l 265 353 z "},"福":{"ha":0,"x_min":0,"x_max":0,"o":"m 400 549 b 485 715 435 608 463 664 l 485 906 l 401 906 l 367 1101 l 188 1090 l 225 906 l 93 906 l 93 724 l 294 724 b 186 550 271 671 235 613 b 26 376 138 488 83 429 l 97 181 b 207 290 136 217 172 253 l 207 -135 l 383 -135 l 383 356 b 456 288 417 326 440 304 l 503 381 l 503 -118 l 1251 -118 l 1251 472 l 508 472 z m 1269 915 l 1269 1069 l 503 1069 l 503 915 z m 1200 533 l 1200 854 l 549 854 l 549 533 z m 724 731 l 1026 731 l 1026 661 l 724 661 z m 675 244 l 675 333 l 801 333 l 801 244 z m 950 333 l 1075 333 l 1075 244 l 950 244 z m 801 31 l 675 31 l 675 121 l 801 121 z m 1075 121 l 1075 31 l 950 31 l 950 121 z "},"科":{"ha":0,"x_min":0,"x_max":0,"o":"m 1288 389 l 1149 374 l 1149 1111 l 960 1115 l 960 354 l 586 314 l 622 351 b 550 435 604 375 581 403 b 479 508 521 467 497 492 l 436 471 l 436 578 l 576 578 l 576 758 l 436 758 l 436 892 b 588 921 483 899 533 908 l 556 1092 b 335 1050 493 1076 419 1063 b 89 1018 250 1038 168 1026 l 117 850 l 256 865 l 256 758 l 92 758 l 92 578 l 231 578 b 15 228 179 460 107 343 l 107 57 b 256 303 164 135 214 217 l 256 -140 l 436 -140 l 436 329 b 508 231 468 288 493 254 l 564 290 l 578 122 l 960 164 l 960 -142 l 1149 -142 l 1149 183 l 1301 200 z m 947 843 b 847 938 921 872 888 903 b 735 1026 807 972 769 1003 l 622 893 b 843 697 694 839 768 774 z m 575 560 b 794 363 640 510 726 431 l 906 513 b 799 610 876 542 840 575 b 688 697 757 644 719 674 z "},"符":{"ha":0,"x_min":0,"x_max":0,"o":"m 372 850 b 433 696 393 807 413 756 l 596 751 l 551 850 l 685 850 b 625 753 664 814 644 782 l 785 675 b 879 850 819 735 851 793 l 933 850 b 1004 696 961 793 985 742 l 1161 767 l 1114 850 l 1282 850 l 1282 1021 l 953 1021 l 982 1101 l 810 1133 b 704 888 781 1046 744 964 l 704 1021 l 428 1021 b 463 1104 440 1046 451 1074 l 283 1135 b 186 942 263 1081 229 1017 b 56 758 143 868 100 807 l 208 654 b 340 850 251 708 296 774 z m 326 725 b 49 367 265 597 161 471 l 131 192 b 251 304 175 229 215 267 l 251 -143 l 436 -143 l 436 544 b 497 664 453 574 474 613 z m 1132 585 l 1132 683 l 947 689 l 947 585 l 483 585 l 483 407 l 610 407 l 519 331 b 613 215 546 301 578 263 b 708 83 649 169 681 125 l 844 219 b 768 313 825 246 800 276 b 685 407 738 349 710 381 l 947 407 l 947 113 b 868 44 947 57 936 50 l 746 35 l 806 -149 l 919 -140 b 1132 50 1096 -122 1126 -101 l 1132 407 l 1296 407 l 1296 585 z "},"答":{"ha":0,"x_min":0,"x_max":0,"o":"m 347 864 b 415 724 371 818 394 772 l 575 778 l 528 864 l 654 864 l 635 833 l 810 774 b 860 864 825 799 842 829 l 900 864 b 990 694 921 831 951 774 l 1156 756 l 1089 864 l 1272 864 l 1272 1032 l 936 1032 l 967 1113 l 776 1132 b 675 901 749 1050 715 972 l 675 1032 l 424 1032 b 457 1108 433 1053 444 1078 l 267 1132 b 171 950 246 1081 214 1019 b 44 772 129 882 88 822 l 206 674 b 335 864 246 725 289 788 z m 586 775 b 33 511 451 664 260 574 l 107 343 b 344 436 185 369 264 400 l 344 364 l 1003 364 l 1003 435 b 1242 340 1086 397 1165 367 l 1313 513 b 761 775 1069 579 885 667 z m 493 508 b 676 628 569 549 631 589 b 856 508 719 590 779 550 z m 1136 299 l 214 299 l 214 -122 l 1136 -122 z m 946 31 l 404 31 l 404 144 l 946 144 z "},"维":{"ha":0,"x_min":0,"x_max":0,"o":"m 96 572 b 168 583 121 576 144 581 b 242 593 197 588 222 592 b 164 465 207 532 181 489 b 82 403 136 428 122 418 l 128 213 b 229 235 165 222 200 229 b 408 268 274 242 333 253 l 478 281 l 475 456 b 313 425 408 442 354 432 b 422 607 340 463 376 524 b 546 844 468 692 510 771 l 410 915 l 388 867 l 338 763 l 265 758 b 349 900 290 794 318 842 b 429 1065 381 958 407 1014 l 271 1131 b 183 936 246 1069 217 1004 b 115 807 151 868 128 825 b 51 751 97 781 76 763 z m 1072 186 l 1254 186 l 1254 350 l 1072 350 l 1072 472 l 1254 472 l 1254 633 l 1072 633 l 1072 758 l 1278 758 l 1278 932 l 1104 932 l 1075 1081 l 900 1075 l 933 932 l 790 932 b 832 1092 806 983 819 1036 l 660 1110 b 454 608 619 917 558 768 l 542 424 l 583 486 l 583 -111 l 1299 -111 l 1299 61 l 1072 61 z m 750 758 l 908 758 l 908 633 l 750 633 z m 750 472 l 908 472 l 908 350 l 750 350 z m 908 61 l 750 61 l 750 186 l 908 186 z m 76 -82 b 283 -40 113 -74 182 -60 b 529 3 386 -22 468 -7 l 515 185 l 258 135 b 49 99 151 115 82 103 z "},"罗":{"ha":0,"x_min":0,"x_max":0,"o":"m 1222 1081 l 140 1081 l 140 639 l 463 639 b 281 475 414 585 354 529 b 60 332 208 421 135 372 l 165 178 b 315 276 222 213 272 244 b 542 149 414 224 489 181 b 90 11 424 103 274 57 l 189 -162 b 1189 376 736 -8 988 135 l 1189 550 l 624 550 b 703 639 654 582 681 613 l 1222 639 z m 456 793 l 321 793 l 321 925 l 456 925 z m 746 925 l 746 793 l 617 793 l 617 925 z m 908 925 l 1042 925 l 1042 793 l 908 793 z m 949 392 b 739 240 888 336 818 286 b 456 388 639 297 544 347 l 461 392 z "},"苏":{"ha":0,"x_min":0,"x_max":0,"o":"m 554 836 l 815 836 l 815 757 l 1010 757 l 1010 836 l 1292 836 l 1292 1014 l 1010 1014 l 1010 1107 l 815 1114 l 815 1014 l 554 1014 l 554 1107 l 358 1114 l 358 1014 l 71 1014 l 71 836 l 358 836 l 358 761 l 554 761 z m 1321 311 b 1218 385 1300 328 1265 353 b 1083 474 1172 417 1126 447 l 1094 667 l 688 667 b 689 739 689 683 689 707 l 494 746 l 493 667 l 136 667 l 136 486 l 486 486 b 88 -19 460 233 378 132 l 232 -169 b 679 486 551 15 647 144 l 892 486 l 881 325 l 868 153 b 756 53 857 68 844 58 l 633 44 l 689 -137 l 821 -128 b 1056 63 983 -114 1044 -76 l 1064 183 l 1069 263 b 1242 124 1135 214 1193 167 z m 190 114 b 419 375 271 190 347 278 l 276 486 b 178 358 253 449 219 406 b 60 239 136 311 97 271 z "},"茨":{"ha":0,"x_min":0,"x_max":0,"o":"m 556 849 l 803 849 l 803 769 l 990 769 l 990 849 l 1267 849 l 1267 1022 l 990 1022 l 990 1107 l 803 1113 l 803 1022 l 556 1022 l 556 1107 l 371 1113 l 371 1022 l 90 1022 l 90 849 l 371 849 l 371 769 l 556 769 z m 103 674 b 204 576 131 650 164 617 b 310 463 244 536 279 499 l 431 613 b 324 718 399 644 364 681 b 226 807 285 756 253 786 z m 1131 318 b 1258 533 1163 367 1204 438 l 1258 706 l 757 706 l 779 772 l 597 800 b 376 428 553 674 475 540 l 536 317 b 678 531 593 390 640 461 l 1061 531 b 968 394 1024 472 993 426 z m 1317 21 b 889 374 1065 119 928 228 b 892 435 890 400 892 419 l 892 485 l 704 490 b 703 436 704 469 704 451 b 304 19 696 232 608 133 l 414 -157 b 808 131 614 -68 738 21 b 1210 -156 888 21 1017 -68 z m 246 390 b 58 -25 194 244 132 106 l 232 -124 b 421 307 303 11 375 174 z "},"莫":{"ha":0,"x_min":0,"x_max":0,"o":"m 558 879 l 799 879 l 799 832 l 988 832 l 988 879 l 1253 879 l 1253 1040 l 988 1040 l 988 1117 l 799 1124 l 799 1040 l 558 1040 l 558 1117 l 371 1124 l 371 1040 l 107 1040 l 107 879 l 371 879 l 371 832 l 558 832 z m 1297 15 b 824 139 1063 33 917 74 l 1254 139 l 1254 281 l 776 281 l 776 340 l 1160 340 l 1160 808 l 203 808 l 203 340 l 582 340 l 582 281 l 108 281 l 108 139 l 531 139 b 50 11 463 71 318 35 l 104 -160 b 686 51 392 -118 585 -47 b 1251 -150 807 -54 986 -118 z m 388 631 l 388 682 l 974 682 l 974 631 z m 974 464 l 388 464 l 388 517 l 974 517 z "},"西":{"ha":0,"x_min":0,"x_max":0,"o":"m 82 1071 l 82 890 l 436 890 l 436 765 l 138 765 l 138 -119 l 1221 -119 l 1221 765 l 908 765 l 908 890 l 1279 890 l 1279 1071 z m 618 890 l 728 890 l 728 761 l 618 761 z m 439 589 b 410 415 438 515 428 457 b 318 299 393 374 363 335 l 318 589 z m 318 229 l 419 139 b 619 589 569 264 614 357 l 725 589 l 725 346 b 854 200 725 251 764 206 l 1043 200 l 1043 69 l 318 69 z m 947 381 b 906 440 918 382 906 400 l 906 589 l 1043 589 l 1043 381 z "},"谷":{"ha":0,"x_min":0,"x_max":0,"o":"m 490 1119 b 306 971 443 1075 382 1025 b 110 847 229 917 164 875 l 215 681 b 415 815 278 718 344 763 b 613 975 486 868 553 921 z m 1254 851 b 1065 981 1206 886 1142 929 b 858 1118 989 1032 921 1078 l 746 975 b 953 832 800 940 869 892 b 1144 685 1038 772 1101 722 z m 1317 454 b 763 851 1076 554 892 686 l 601 851 b 42 454 483 693 297 561 l 131 272 b 260 342 190 303 233 326 l 260 -122 l 1106 -122 l 1106 338 b 1229 274 1132 322 1174 301 z m 407 431 b 683 656 528 510 619 585 b 953 431 742 586 832 511 z m 443 253 l 921 253 l 921 56 l 443 56 z "},"象":{"ha":0,"x_min":0,"x_max":0,"o":"m 1315 46 b 1022 318 1172 129 1083 213 l 1049 331 b 1178 394 1118 364 1161 385 l 1111 513 l 1207 513 l 1207 850 l 968 850 l 1057 917 l 1057 1049 l 613 1049 l 651 1101 l 450 1135 b 58 831 358 1022 228 921 l 131 668 l 176 692 l 176 513 l 463 513 b 82 403 394 474 281 440 l 138 269 b 567 414 326 313 469 360 b 586 389 576 403 582 394 b 90 206 463 324 297 263 l 153 79 b 650 288 349 139 515 208 b 664 250 654 279 658 267 b 61 3 510 154 293 63 l 132 -135 b 683 114 381 -50 565 33 b 586 8 681 25 668 17 l 488 -1 l 542 -153 l 653 -142 b 864 96 813 -128 864 -81 b 849 240 864 146 858 194 l 875 253 b 1190 -97 949 110 1050 3 z m 818 917 l 731 850 l 413 850 l 490 917 z m 603 721 b 572 642 596 700 586 674 l 358 642 l 358 721 z m 1026 642 l 757 642 b 781 721 769 681 776 707 l 1026 721 z m 1042 513 b 793 383 960 465 878 422 b 696 513 767 429 735 472 z "},"达":{"ha":0,"x_min":0,"x_max":0,"o":"m 567 101 b 857 396 711 203 800 292 b 1122 90 950 306 1054 185 l 1257 247 b 924 586 1188 331 1076 443 b 938 694 931 632 936 668 l 1250 694 l 1250 883 l 943 883 l 943 1108 l 744 1115 l 744 883 l 482 883 l 482 694 l 738 694 b 433 263 718 499 646 394 z m 450 879 b 354 997 428 913 396 951 b 243 1106 313 1043 275 1079 l 110 981 b 218 860 142 950 178 910 b 317 732 260 811 293 768 z m 901 56 b 767 57 840 56 796 56 b 551 83 676 60 606 68 b 397 169 497 99 446 128 l 397 690 l 86 690 l 86 507 l 218 507 l 217 182 b 36 15 167 126 107 71 l 146 -144 b 208 -82 167 -126 188 -106 l 251 -36 b 304 21 250 -39 267 -19 b 571 -106 397 -58 476 -93 b 771 -121 619 -112 686 -118 b 882 -122 792 -122 828 -122 b 1290 -114 1004 -122 1140 -119 l 1332 68 b 901 56 1178 60 1033 56 z "},"迪":{"ha":0,"x_min":0,"x_max":0,"o":"m 946 1108 l 765 1115 l 765 974 l 469 974 l 469 142 l 1242 142 l 1242 974 l 946 974 z m 446 892 b 351 1003 424 922 392 960 b 240 1114 311 1046 274 1083 l 108 992 b 218 872 140 960 178 921 b 317 750 260 825 293 785 z m 643 644 l 643 801 l 765 801 l 765 644 z m 946 644 l 946 801 l 1067 801 l 1067 644 z m 881 56 b 771 57 832 56 794 56 b 493 103 639 61 565 69 b 388 176 458 119 422 144 l 388 696 l 89 696 l 89 511 l 211 511 l 211 197 b 40 19 176 154 119 94 l 153 -132 b 300 28 208 -79 257 -26 b 567 -106 394 -60 474 -94 b 774 -119 614 -112 683 -117 b 903 -121 797 -121 840 -121 b 1276 -114 1035 -121 1158 -118 l 1315 69 b 881 56 1165 60 1021 56 z m 765 318 l 643 318 l 643 478 l 765 478 z m 1067 478 l 1067 318 l 946 318 l 946 478 z "},"里":{"ha":0,"x_min":0,"x_max":0,"o":"m 1189 147 l 1189 315 l 774 315 l 774 401 l 1188 401 l 1188 1072 l 172 1072 l 172 401 l 588 401 l 588 315 l 171 315 l 171 147 l 588 147 l 588 57 l 68 57 l 68 -112 l 1289 -112 l 1289 57 l 774 57 l 774 147 z m 360 807 l 360 900 l 588 900 l 588 807 z m 774 900 l 1000 900 l 1000 807 l 774 807 z m 588 660 l 588 565 l 360 565 l 360 660 z m 1000 660 l 1000 565 l 774 565 l 774 660 z "},"釜":{"ha":0,"x_min":0,"x_max":0,"o":"m 1206 192 l 1206 356 l 774 356 l 774 433 l 1078 433 l 1078 521 b 1242 478 1124 507 1178 493 l 1307 661 b 871 775 1146 690 1000 729 b 985 861 914 806 953 835 l 1176 764 l 1258 928 b 822 1129 1126 990 981 1058 l 735 986 l 818 944 b 679 860 778 915 731 886 b 547 939 633 883 590 910 l 626 986 l 542 1133 b 335 1025 488 1100 418 1064 b 101 931 251 988 174 956 l 181 756 b 393 854 236 778 307 811 b 492 778 419 831 453 806 b 53 653 365 732 219 690 l 128 471 b 283 515 179 483 231 499 l 283 433 l 588 433 l 588 356 l 161 356 l 161 192 l 282 192 l 315 51 l 104 51 l 104 -115 l 1257 -115 l 1257 51 l 1047 51 l 1082 192 z m 460 574 b 681 667 532 600 606 631 b 907 574 750 632 825 601 z m 588 51 l 485 51 l 454 192 l 588 192 z m 774 51 l 774 192 l 908 192 l 875 51 z "},"阿":{"ha":0,"x_min":0,"x_max":0,"o":"m 533 1079 l 99 1079 l 99 -147 l 275 -147 l 275 900 l 369 900 b 285 572 349 783 317 657 b 382 314 347 468 382 392 b 332 228 382 243 371 236 l 278 218 l 329 36 l 397 49 b 553 251 503 69 549 89 b 533 399 553 311 546 360 b 476 539 521 438 503 485 l 449 594 b 522 853 469 654 493 740 l 533 894 z m 575 1053 l 575 871 l 1035 871 l 1035 150 b 958 54 1035 78 1021 60 l 854 46 l 910 -149 l 1014 -139 b 1219 83 1192 -119 1214 -92 l 1219 871 l 1300 871 l 1300 1053 z m 576 153 l 969 153 l 969 771 l 576 771 z m 732 606 l 814 606 l 814 317 l 732 317 z "},"隆":{"ha":0,"x_min":0,"x_max":0,"o":"m 1160 574 l 1263 549 l 1315 699 b 1056 750 1217 711 1129 729 b 1226 899 1118 790 1175 840 l 1226 1044 l 850 1044 b 886 1096 857 1051 868 1069 l 715 1136 b 496 908 667 1060 589 976 l 496 1076 l 96 1076 l 96 -133 l 247 -133 l 247 894 l 343 894 l 258 569 b 339 326 310 482 338 400 b 304 240 339 260 332 244 l 254 235 l 301 44 l 369 53 b 493 190 449 64 482 94 l 574 150 l 574 86 l 801 86 l 801 31 l 458 31 l 458 -110 l 1263 -110 l 1263 31 l 979 31 l 979 86 l 1203 86 l 1203 221 l 979 221 l 979 278 l 1225 278 l 1225 417 l 979 417 l 979 461 l 801 467 l 801 417 l 696 417 l 707 451 l 558 479 b 496 317 544 428 524 374 b 413 603 492 410 464 506 l 482 843 l 550 760 b 635 822 576 778 604 799 b 717 754 656 799 683 776 b 450 689 635 728 546 707 l 504 544 l 589 565 l 589 485 l 1160 485 z m 1038 910 b 882 817 992 875 940 843 b 749 910 831 842 786 872 z m 710 599 b 886 661 774 617 832 638 b 1065 599 939 639 999 618 z m 801 221 l 615 221 b 643 278 626 242 636 260 l 801 278 z "},"雅":{"ha":0,"x_min":0,"x_max":0,"o":"m 1075 176 l 1244 176 l 1244 339 l 1075 339 l 1075 468 l 1244 468 l 1244 628 l 1075 628 l 1075 751 l 1265 751 l 1265 926 l 1097 926 l 1067 1079 l 904 1074 l 939 926 l 807 926 b 846 1092 822 981 835 1035 l 686 1108 b 624 885 668 1024 647 949 b 518 669 600 821 564 749 l 518 881 l 606 881 l 606 1057 l 94 1057 l 94 881 l 356 881 l 356 632 l 251 632 b 278 736 258 647 267 682 l 297 829 l 140 838 b 121 740 139 831 133 799 b 90 632 108 682 99 646 l 90 460 l 249 460 b 11 140 200 349 111 233 l 81 -40 b 356 332 204 82 296 206 l 356 119 b 283 40 356 64 339 46 l 217 32 l 269 -144 l 351 -136 b 518 53 490 -122 518 -85 l 518 460 l 549 460 l 565 404 l 613 488 l 613 -119 l 1286 -119 l 1286 51 l 1075 51 z m 772 751 l 915 751 l 915 628 l 772 628 z m 772 468 l 915 468 l 915 339 l 772 339 z m 915 51 l 772 51 l 772 176 l 915 176 z "},"雷":{"ha":0,"x_min":0,"x_max":0,"o":"m 1189 943 l 1189 1088 l 176 1088 l 176 943 l 596 943 l 596 893 l 108 893 l 108 574 l 278 574 l 278 765 l 596 765 l 596 488 l 769 488 l 769 765 l 1085 765 l 1085 575 l 1257 575 l 1257 893 l 769 893 l 769 943 z m 310 633 l 556 633 l 556 731 l 310 731 z m 807 633 l 1053 633 l 1053 731 l 807 731 z m 556 597 l 310 597 l 310 501 l 556 501 z m 1053 597 l 807 597 l 807 501 l 1053 501 z m 1182 450 l 181 450 l 181 -118 l 1182 -118 z m 360 247 l 360 319 l 593 319 l 593 247 z m 769 319 l 1000 319 l 1000 247 l 769 247 z m 593 26 l 360 26 l 360 101 l 593 101 z m 1000 101 l 1000 26 l 769 26 l 769 101 z "},"鲁":{"ha":0,"x_min":0,"x_max":0,"o":"m 190 506 l 1189 506 l 1189 892 l 1006 892 l 1060 935 l 1060 1067 l 610 1067 b 642 1108 625 1085 635 1099 l 433 1135 b 78 871 356 1042 238 953 l 163 719 l 190 735 z m 833 942 l 767 892 l 429 892 l 489 942 z m 379 788 l 608 788 l 608 746 l 379 746 z m 774 788 l 1001 788 l 1001 746 l 774 746 z m 608 608 l 379 608 l 379 649 l 608 649 z m 1001 649 l 1001 608 l 774 608 l 774 649 z m 1293 349 l 1293 465 l 68 465 l 68 349 z m 1153 307 l 215 307 l 215 -133 l 1153 -133 z m 403 147 l 403 200 l 964 200 l 964 147 z m 964 36 l 964 -19 l 403 -19 l 403 36 z "},"黎":{"ha":0,"x_min":0,"x_max":0,"o":"m 703 740 b 804 871 746 789 779 833 l 876 871 b 719 672 844 783 807 733 l 826 565 b 957 703 886 614 931 660 b 1022 871 985 746 1007 801 l 1092 871 b 1075 713 1083 785 1078 732 b 992 643 1069 664 1054 650 l 936 639 l 989 481 l 1058 488 b 1239 693 1199 501 1228 531 l 1251 860 l 1263 1032 l 888 1032 l 911 1096 l 758 1118 b 617 871 721 1017 685 954 z m 1328 363 b 749 593 1079 413 886 489 l 617 593 l 579 563 l 642 657 b 517 743 601 692 560 719 l 465 678 l 465 749 l 608 749 l 608 885 l 469 885 l 469 957 l 629 974 l 608 1113 b 367 1086 540 1103 460 1094 b 119 1068 275 1078 193 1072 l 133 929 b 301 942 188 932 244 936 l 301 885 l 104 885 l 104 749 l 253 749 b 71 608 204 694 144 649 l 142 454 b 306 606 207 501 261 551 l 306 485 l 444 485 b 39 350 333 432 199 388 l 101 181 b 315 254 171 201 242 226 b 443 153 357 225 400 192 b 94 39 286 97 171 60 l 153 -104 b 485 8 244 -75 356 -37 l 536 -140 l 619 -132 b 786 15 757 -118 786 -90 l 786 361 l 613 369 l 613 75 b 557 21 613 35 601 25 l 500 14 b 592 50 540 29 571 40 l 572 118 l 554 194 b 503 175 531 185 514 179 l 569 258 b 486 324 538 285 510 307 b 685 429 553 354 619 389 b 899 321 746 393 817 357 b 813 256 867 294 839 274 l 878 176 b 840 188 851 185 839 189 l 788 64 b 1210 -104 985 -8 1125 -64 l 1256 47 l 936 157 b 1063 254 979 188 1022 219 b 1261 186 1119 232 1185 210 z m 465 635 b 567 554 503 608 536 582 b 465 494 535 533 500 513 z "},"黑":{"ha":0,"x_min":0,"x_max":0,"o":"m 1276 133 l 1276 290 l 767 290 l 767 347 l 1201 347 l 1201 494 l 767 494 l 767 550 l 1196 550 l 1196 1081 l 163 1081 l 163 550 l 593 550 l 593 494 l 158 494 l 158 347 l 593 347 l 593 290 l 85 290 l 85 133 l 186 133 b 57 -85 160 69 117 -3 l 238 -157 b 354 89 293 -56 331 18 l 215 133 l 1138 133 l 994 82 b 1117 -154 1053 -21 1093 -100 l 1288 -76 b 1157 133 1267 -36 1222 35 z m 451 926 l 350 867 b 446 706 374 838 406 785 l 340 706 l 340 926 z m 481 926 l 593 926 l 593 706 l 474 706 l 579 768 z m 767 926 l 885 926 b 775 769 857 876 810 810 l 867 706 l 767 706 z m 911 706 b 1011 858 954 767 988 818 l 907 926 l 1017 926 l 1017 706 z m 717 85 b 786 -131 738 36 760 -35 l 958 -83 b 881 122 940 -26 915 42 z m 436 90 b 471 -133 451 11 464 -64 l 653 -99 l 639 -35 b 604 114 629 14 617 63 z "},"齐":{"ha":0,"x_min":0,"x_max":0,"o":"m 1322 489 b 865 596 1146 513 994 549 b 1104 833 958 663 1039 742 l 1263 833 l 1263 1004 l 794 1004 l 768 1126 l 554 1119 l 582 1004 l 92 1004 l 92 833 l 247 833 b 489 596 322 739 403 660 b 32 482 371 553 218 514 l 89 293 b 335 356 178 313 260 333 l 335 299 b 99 -46 329 129 304 72 l 264 -176 b 529 306 476 -28 524 65 b 531 353 531 315 531 332 l 354 361 b 674 483 476 399 583 440 b 1261 299 824 410 1019 347 z m 872 833 b 678 682 818 776 753 725 b 483 833 606 725 540 776 z m 1029 350 l 832 358 l 832 -128 l 1029 -128 z "}}}
